<?xml version="1.0" encoding="UTF-8"?>
<svg id="Calque_2" data-name="Calque 2" xmlns="http://www.w3.org/2000/svg" viewBox="0 0 100.52 45.44">
  <defs>
    <style>
      .cls-1 {
        fill: #db2a54;
      }
    </style>
  </defs>
  <g id="Calque_1-2" data-name="Calque 1">
    <g>
      <path class="cls-1" d="M36.92,17.79c.09.04.18.26.41.31.41.09.28-.29.33-.47.04-.12.2-.19.21-.45.02-.44-.23-.35-.51-.47-.53-.24-1.11-.34-1.64-.59-.45-.21-.77-.6-1.14-.82-.87-.53-2.87-.87-3.16-1.95-.02-.07.03-.17,0-.27-.28-1.13-1.26-.69-1.86-1.41-.35-.43-.31-.62-.43-1.09-.02-.07-.26-.52-.3-.56-.14-.13-.68-.11-.71-.39-.06-.58,1.03-1,1.44-.63.26.23.37.74.73,1.06.91.81,1.87,1.71,2.83,2.44.38.29.92.59,1.3.88.13.1.31.39.44.49.13.09.31.11.45.19.39.25.97.98,1.35,1.27.4.31.96.61,1.33.95.14.13.3.5.46.68.28.32.63.46,1.03.57,0,0,.23.07.24-.24h0c-.02-.1-.03-.22-.07-.34-.33-.86-.9-1.23-1.25-1.96-.21-.44-.59-1.14-.74-1.54-.14-.37,0-.74-.5-.81-.29-.04-.6.09-.84.03-.04,0-.61-.4-.63-.43-.19-.25-.2-1-.34-1.37-.2-.52-.5-.37-.76-.71-.3-.41-.14-.91-.33-1.14-.03-.03-.56-.43-.6-.44-.45-.14-.99.05-1.25.44-.15.23-.1.61-.45.56-.46-.06-1.26-1.21-1.67-1.49-.21-.36-.1-.74-.19-1.06-.06-.19-.3-.36-.4-.53-.35-.61-.07-1.16-.64-1.7-.09-.08-.23-.14-.33-.22-.15-.13-.4-.52-.63-.36-.09.06.02.64-.35.95-.99.85-1.03,1.55-1.09,2.8-.02.27-.1.54-.08.82.03.4.34.72.16,1.13-.26.35-.71.72-.94,1.07-.21.32-.12.81-.7.64-.26-.07-.19-.47-.27-.71-.03-.09-.25-.53-.32-.56-.18-.09-.67.12-.75.28-.04.08-.27.96-.28,1.08-.06.55.17,1.06.17,1.52,0,1.37-.49,2.01-.9,3.23-.36,1.03-1.03,1.81-1.82,2.54-.25.23-.38.5-.6.71-.43.4-.85.56-1.33,1.04-.58.58-1.2,1.14-1.77,1.73-.15.15-.21.36-.41.52-.27.2-.74.39-1.02.6-.73.55-1.36,1.25-2.02,1.85-.21.19-.6.37-.82.54-.65.51-1.28,1.21-1.92,1.74-.72.58-1.48,1.06-2.24,1.56-.62.41-1.47,1.16-1.99,1.71-.52.54-1.04,1.38-1.65,1.78-.29.19-1.24.61-1.42.81-.14.16-.22.61-.33.82-.08.15-.6.9-.71,1.03-.14.16-.38.24-.48.45-.22.44.35.68-.1,1.15-.54.57-1.75.42-2.14,1.17.37.22.46.53.94.51.46-.01,1.96-.77,2.37-1.06.28-.2.84-.65,1.06-.89.15-.16.28-.5.37-.58.09-.09.45-.22.58-.32.15-.11.31-.38.39-.43.27-.17,1.07-.16,1.14-.6.04-.25-.1-1.09.41-.78.03.02.45.39.47.41.04.06.08.51.13.67.07.19.23.4.29.59.07.25.07.83.21,1.04.16.25.83.24,1.11.25.04-.02.43-.58.48-.67.08-.15.1-.32.17-.47.04-.07.27-.22.32-.3.13-.2.43-.77.51-.99.22-.61.21-1.5.43-2.09.17-.46.45-.79.99-.67.22.05.22.2.23.39.05,1.25-.96,2.5-.84,3.48.02.19.14.32.11.55-.02.18-.13.19-.16.28-.06.18.09,1.04.16,1.24.16.46.8.24,1.15.12.84-.28.49-.53.59-1.2.06-.41.16-.79.22-1.25.09-.64.59-1.19.69-1.71.05-.26-.05-.45-.04-.64,0-.14.17-.36.2-.5.08-.42-.19-.9-.15-1.35.01-.15.24-1.01.3-1.11.1-.16.34-.34.43-.54.39.34,1.02-.14,1.34-.04.33.1.37.98.5,1.3.11.28.34.62.67.64.08,0,.52-.12.59-.17.2-.13.11-.37.15-.55.13-.6,1.38-1.16,1.61-1.65.32-.69.54-1.43.8-2.14.29-.79.59-1.02,1.05-1.62.26-.33.32-.85.85-.89.68-.05.29.34.25.63-.05.37.25,1.02.71.92.29-.06,1.15-.82,1.19-1.09.03-.2-.01-.38.04-.61.07-.32.27-.53.41-.79.07-.14.16-.51.26-.56.84.2,1.21.81,2.04.09.55-.48.38-.82.49-1.42.06-.34.36-.78.39-1.08.03-.26-.1-.57-.08-.84.04-.5.44-1.17.53-1.6.14-.74.14-1.02.51-1.72.23-.43.24-.49.42-.94.11-.27.27-.56.4-.83.21-.02.44-.04.64.01.57.14,1.69,1.06,2.19,1.45.32.25.98.81,1.36.94.27.09.59.04.89.15.37.13.85.54,1.2.6.08.01.17-.06.28-.02ZM18.2,29.46c-.39.01-.86-1.46.12-.97.12.31.24.78-.12.97ZM19.12,22.65c-.07.08-.14.16-.17.26-.38.9-1,1.57-1.32,2.49-.06.16-.04.35-.12.5-.18.09-.38.09-.57.16-.21.08-.88.5-1.02.5-.12,0-.29-.17-.42-.23-.35-.14-.55-.04-.91-.05-.18-.17.82-.8.92-.9.36-.35.34-.35.77-.64.63-.43.77-.65,1.27-1.12.17-.16.45-.28.61-.45.16-.17.3-.59.54-.63.08-.02.49-.04.43.11ZM26,14.74c-.1,1.13.2,1.23-.76,2.07-.17.15-.5.3-.63.46-.57.69-.67,1.76-.95,2.59-.07.23-.53,1.17-.66,1.36-.31.44-.73.37-1.01.59-.1.08-.45.71-.48.85-.05.19.01.39-.09.56-.06.1-.45.36-.56.35-.6-.06-.54-1.42-1.39-1.13l.06-.67c.21-.27.58-.43.78-.69.19-.24.24-.54.51-.74.19-.14.43-.16.63-.3.22-.15.34-.46.54-.66.44-.43.9-.75,1.28-1.28.4-.56.54-1.36.88-1.95.12-.2.39-.42.48-.61.07-.16.07-.3.17-.48.19-.35.67-.71.89-1.07l.15-.05c.43.26.17.45.15.78ZM26.68,19.23c.14.07.25.4.14.49-.14.11-.35-.38-.14-.49ZM26.79,21.62c-.3-.14-.15-.51,0-.54.47-.09.41.73,0,.54ZM29.03,13.84c-.04.14-.21.32-.24.47-.04.19.05.44-.12.58-.43.37-.62-.39-.7-.71-.07-.25-.26-.83.09-.94.34-.1,1.09.17.97.59Z"/>
      <path class="cls-1" d="M100.14,37.33c-.11-.08-.25-.08-.35-.14-.37-.23-.52-.55-.98-.16.07.22.39.6.37.8-.02.28-.33.42-.48.22-.12-.16-.31-1.11.11-1.05-.12-.24-.12-.53-.2-.8-.31-1.01-.93-1.18-1.69-1.73-.61-.43-1.19-.88-1.77-1.33-.18-.14-.34-.39-.52-.51-.15-.11-.36-.13-.49-.22-.15-.11-.29-.42-.46-.57-.58-.52-1.05-1.05-1.66-1.55-.86-.69-1.73-1.4-2.58-2.1-.25-.2-.36-.5-.54-.65-.27-.23-.95-.56-1.28-.79-.18-.12-.27-.33-.41-.46-.35-.32-1-.7-1.38-1.01-.3-.24-.71-.59-.99-.84-.32-.29-.52-.81-.86-1.11-.36-.33-.78-.55-1.15-.81-.16-.11-.3-.46-.49-.6-.16-.13-.36-.16-.52-.3-.16-.14-.33-.45-.49-.6-.42-.39-1.06-.77-1.48-1.16-.16-.15-.29-.42-.48-.58-.47-.38-.46-.41-.85-.84-.18-.2-.45-.32-.65-.54-.21-.24-.33-.57-.55-.81-.23-.26-.58-.32-.82-.54-.21-.2-.27-.53-.41-.68-.1-.11-.34-.17-.49-.28-.16-.12-.73-.75-.87-.93-.25-.31-.5-.9-.77-1.14-.08-.08-.21-.07-.3-.14-.4-.31-.58-.89-.95-1.22-.16-.14-.34-.19-.47-.3-.46-.41-.52-1.32-.84-1.71-.1-.12-.24-.14-.35-.25-.48-.44-.48-.77-.77-1.3-.1-.18-.55-.7-.58-.78-.04-.16,0-.36-.02-.53-.13-.94-.12-1.62-.83-2.35-.14-.15-.45-.21-.52-.32-.11-.17-.08-.5-.13-.69-.22-.89-1.11-1.62-1.62-2.35-.25-.36-.31-.77-.63-1.14-.32-.36-.53-.57-1.01-.29-.34.2-.19.59-.03.87.11.19.33.31.45.48.32.47.54,1.65.16,2.11-.21.27-.52.7-.78.9-.32.25-.79.47-1.14.15.02-.37.01-.77-.4-.9-.19-.06-.64.2-.71.4-.16.41-.22,1.16-.34,1.62-.05.19-.14.37-.2.56-.04.14.05.28-.11.46-.32.39-.67.34-1.07.48-.18.06-.4.29-.57.29-.07,0-.59-.04-.64-.06-.13-.04-.38-.4-.53-.5-.62-.38-.22,1.11-.23,1.29-.02.26-.33.59-.36.83-.03.23.12.43.11.7-.02.53-.23.81-.6,1.14-.3.27-.73.54-.98.87-.18.23-.14.6-.27.77-.1.13-.46.2-.62.3-.5.32-.59.97-.91,1.42-.35.5-1.06,1.2-1.16,1.83-.1.61.34.66.35,1.13,0,0,.08.56.6.13h0c.01-.34.23-.36.35-.6.09-.16.09-.44.2-.62.02-.03.43-.5.46-.52.19-.17,1.24-.52,1.49-.47.61.14.21,1.07.79,1.06.69,0,.87-.67,1.58-.17.56.4.3,1.07.93,1.14.31.03.44-.1.46-.41.03-.51-.25-1.43-.37-1.96-.03-.14,0-.28-.02-.41-.09-.39-.64-1.44-.37-1.81.05-.07.44-.29.53-.3.22-.01.46.42.73.38.02.24-.31.3-.43.52-.14.26-.1.71-.02.99.07.27.31.38.34.69.02.12.02.48-.03.57l-.4.24c.08.59.49.56.9.78.31.17.66.79.88.24.31-.77.05-.92.06-1.56,0-.28.17-.59.17-.87,0-.42-.33-.98-.14-1.44.02-.06.12-.12.16-.22.23-.55-.07-1.08-.18-1.56-.02-.08-.07-.56-.07-.63.03-.34.51-.4.74-.2.27.24.28.66.44.92.22.37.67.49.51,1.09-.38-.03-.84-.05-.81.45.02.48.27.59.42.94.09.2.12.44.21.66.21.49.56.92.77,1.41.17.18.65.25.87.16.06-.03.65-.52.71-.6.13-.17.39-.88.62-.83.25.05.8,1.25.97,1.53.35.56,1.27,1.63,1.47,2.17.08.21.05.47.14.73.28.79.96,1.86,1.63,2.36.58.43,1.05-.06,1.35-.55.43.26.54.69.79,1.05.1.14.33.31.43.45.28.38.36.77.54,1.16.25.54.56,1.18.87,1.68.3.48.64.62.9,1,.45.64.5,1.94,1.58,1.79.43-.06.44-.64.95-.48.16.38.27.79.22,1.21-.01.13-.09.24-.1.38-.08.78.52,2.71,1.03,3.32.42.49.7.45,1.3.57.23-.5-.25-1.12-.1-1.6.02-.05.07-.1.13-.09.24.21.55.49.68.79.1.25.08.52.17.76.14.4.67,1.34.9,1.77.17.32.55,1.05.79,1.27.32.29.67.18.83-.2.16-.39-.37-.94-.54-1.28-.19-.38-.37-.85-.48-1.26-.18-.66-.38-1.32-.64-1.97-.23-.58-.25-.63-.38-1.25-.09-.41-.37-.71,0-1.13.28-.02.64.83.93.98.3.15.73.1,1.1.31.99.58,1.37,1.86,1.79,2.83.08.19.24.35.33.54.17.33.08.57.47.78.14.08.29.11.44.16.17.05.91.23,1.03.23.45-.03.8-.62.81-1.04l.06-.05c.26.1.78.13.97.32.09.09.2.37.3.5.13.15.3.22.41.42.08.14.08.37.16.49.06.1.18.11.24.19.22.27.35.63.54.87.16.2.37.24.54.39.61.53.62,1.36.96,1.98.27.5,1.79.51,1.9-.1.06-.32-.12-1.29-.24-1.61-.15-.39-.58-.67-.81-.98-.2-.28-.38-.84-.7-.99-.14-.07-.26.02-.37-.06-.2-.15-.44-.9-.73-1.23-.3-.33-.71-.83-1-1.12-.15-.14-.57-.28-.44-.54.07-.14.46-.13.6-.11.37.05.5.45.76.66.53.42,1.05.82,1.6,1.23.79.59,1.2,1.03,1.82,1.82.25.32.47.79.76,1.07.15.14.6.34.69.48.09.14.15.47.26.67.4.74.72.84,1.49.95.17.03.21.14.49.08.71-.15.61-1.11.12-1.46ZM59.34,14.57c-.05.06-.42.17-.51.17-.35.02-.1-.32-.08-.46.03-.21-.08-.65.2-.73.3-.08.58.8.38,1.01ZM68.15,12.85c-.1.32-.26.08-.38-.03-.26-.24-.37-.5-.58-.76-.11-.14-.38-.31-.48-.5-.26-.49.35-.3.64-.32.32.43.98,1.02.79,1.61ZM70.4,15.79c-.23.03-.32-.26-.5-.34-.11-.05-.23-.03-.34-.09-.26-.15-.42-.66-.34-.94.03-.09.19-.18.2-.29,0-.08-.2-.34-.21-.49,0-.13.1-.22.11-.35.31.08.32.46.49.68.09.12.37.28.42.45.05.15,0,.36.02.53.05.3.19.55.16.85ZM74.96,16.07c-.14.29-.4.15-.6.21-.29.08-.17.69-.22.93-.02.1-.03.18-.15.15-.05-.21-.28-.32-.41-.49-.15-.21-.22-.48-.39-.7-.16-.22-.43-.39-.59-.61-.27-.36-.41-.97-.76-1.28-.17-.15-.38-.15-.53-.26-.23-.17-.47-.65-.71-.87-.13-.12-.38-.24-.52-.38-.4-.41-.84-1.3-1.29-1.61-.13-.09-.31-.12-.45-.21-.4-.25-.51-.74-.8-1.05-.18-.19-.4-.27-.6-.49-.15-.17-.57-.67-.68-.84-.14-.21-.07-.5-.16-.6-.06-.05-.11-.06-.18-.06-.19,0-.83.11-1.02.17-.23.08-.38.36-.5.45-.05.03-.54.23-.6.23-.14,0-.49-.19-.57-.31-.04-.17.4-.89.54-1.02.2-.17.56-.27.78-.47.22-.2.33-.47.57-.68.18-.16.47-.31.66-.49.17-.05.48.09.67.09.18,0,.32-.12.55-.12.11,0,.8.13.87.17.1.06.2.45.2.57,0,.41-.38.63.08,1,.3.24.52.49.77.7.21.17.41.14.65.22.03.28-.11.46.02.74.05.11.92,1.36,1.01,1.44.19.18.34.11.52.19.34.17.64,1.36.85,1.71.11.17.35.31.46.47.25.37.34.77.79,1.06.15.09.3.08.44.16.2.12.56.79.79.74.1-.02.29-.21.42-.07.11.11.2,1,.11,1.2ZM78.89,21.53s-.59.65-.63.73c-.23.46.28,1.03.25,1.33-.02.23-.38.2-.52.34-.12,0-.67-.97-.71-1.13-.08-.3.03-.51.02-.78-.01-.39-.22-.71-.51-.96-.27-.23-.74-.53-.98-.76-.05-.05-.28-.42-.29-.48-.06-.31.46-.59.49-.91.04-.46-.27-.73-.33-1.04-.02-.12-.02-.89.02-.95.04-.06.08-.06.16-.05.08.02.53.56.63.67.06.07.07.16.13.23.21.24.53.59.74.81.25.24.61.4.81.65.19.23.33.57.55.81.3.34.73.55.81,1.04.08.46-.43.33-.65.43Z"/>
      <path class="cls-1" d="M48.1,14.36c.46-.86-.09-1.43,0-2.17.02-.15.61-.76.41-1.12-.06-.09-.83-.13-1.02-.2-.51-.2-1.02-.72-1.71-.81-.29-.04-.91.15-1.1.35-.22.23-.23,1.24-.29,1.59-.03.16-.18.34-.21.54-.07.42.03.81-.09,1.25-.1.36-.48.78-.56,1.12-.11.42.08.82-.29,1.18.97,0,1.81-.55,2.76-.8.8-.21,1.62-.05,2.09-.93Z"/>
      <path class="cls-1" d="M64.04,31.81c-.03-.24-.34-.72-.37-1.1-.03-.4.23-.44.26-.66,0-.04-.04-.58-.05-.64-.06-.35-.44-.72-.74-.89-.21-.12-.97-.4-1.2-.43-.25-.04-.55.06-.75-.12-.11-.1-.14-.29-.24-.41-.12-.15-.29-.2-.43-.39-.22-.32-.38-.95-.63-1.22-.16-.17-.41-.2-.58-.35-.45-.4-1.08-1.24-1.49-1.72-.18-.21-.42-.29-.57-.46-.26-.3-.43-.7-.73-1.01-.69-.7-1.51-1.41-2.23-2.07-.42-.38-.64-.53-1.06-.85-.13-.1-.3-.24-.45-.4l-.13-.07h0c-.23-.15-.6-.35-.81-.47-.05-.03-.1-.05-.13-.07h-.02s0-.01,0-.01h-.01s0,0,0,0h0c-.16-.09-.37-.29-.45-.32-.15-.05-.3,0-.45-.09-.11-.06-.14-.19-.22-.27-.52-.45-.57,0-1.02-.06-.75-.11-1.14-.8-1.86-.86-.38-.03-1.1-.07-1.45.01-.91.22-.81.71-1.35,1.15-.32.26-.8.35-1.11.58-.23.17-.23.51-.6.54-.02,0-.04,0-.06,0h-.02c-.26,0-.54.21-.57.23h0c-.14.18-.48.58-.54.64-.17.14-.5.22-.61.34-.12.13-.3.64-.43.85-.3.47-1,1.05-1.14,1.58-.1.39.04.76.03,1.12,0,.21-.12.44-.12.65,0,.29.22.58.16.86-.05.23-.44.49-.51.75-.5.17-.89.34-1.09.87-.23.62-.41,1.54-.4,2.2,0,.32.17.81.15,1.15,0,.15-.13.33-.15.5-.08.57.05,1.25-.07,1.83-.04.2-.15.41-.2.62-.02.12.02.25,0,.37-.08.44-.92.46-1.24.82-.34.38-.02,1.11.38,1.35.41.11.65.6,1.08.55.12-.01.53-.15.6-.23.39-.49-.33-1.03-.27-1.28.31-.23.46-.57.75-.83.18-.15.78-.49.82-.71.03-.19-.08-.37-.1-.55-.1-.86.07-1.63.25-2.46.17-.76.25-.77.12-1.57-.07-.47.04-.33.24-.57.69-.8,1.13-2.29,1.56-3.28.48-1.1.6-1.96.95-3.07.05-.17.05-.47.13-.58.18-.27.52.18.69.23.21.05.45-.04.66.07.06.58-.25.84-.76,1.01-.08.45.2.81.31,1.2.09.33.11.8.22,1.08.28.71.97.73,1.25,1.42.27.66.22,1.17.3,1.82.13,1.01.83,2.29.9,3.24.02.21-.07.37-.03.63.17.96.73,2.19,1.03,3.15.24.76.41,1.63.67,2.38.26.76,1,1.88,1.38,2.64.55,1.1.88,2.57,1.38,3.73.12.27.69,1.39.91,1.49.2.09.84,0,.75-.31-.39-.64-.86-1.26-1.14-1.97-.22-.57-.15-.6-.16-1.14-.01-.53-.71-2.28-1.01-2.75-.27-.41-.54-.44-.7-1.04-.12-.43-.03-.72-.08-1.11-.07-.51-.43-1.24-.55-1.74-.12-.52-.04-.82.22-1.27.11-.19.6-.71.58-.84-.17-.21-.44-.27-.63-.51-.28-.37-.6-1.45-.69-1.92-.02-.09-.05-.35.02-.4.66-.13.92.35,1.32.71.46.41.81.34.72,1.17-.09.87-.33,1.52.03,2.37.25.59,1.31,2.07,1.79,2.5.13.12.28.15.44.32.19.22.33.62.57.79.14.1.31.12.42.2.74.61.74,1.86,1.02,2.7.07.21.25.41.29.64.07.39-.07.8.03,1.23.05.24.47,1.35.62,1.51.21.23.65.07.9-.02.95-.32.41-.59.6-1.2.06-.2.21-.34.21-.6-.01-.4-.48-1.08-.63-1.49-.18-.46-.25-.96-.44-1.41-.29-.69-.61-1.07-.84-1.83-.21-.71-.46-1.17-.73-1.83-.23-.54-.31-1.16-.72-1.62-.15-.16-.42-.2-.54-.39-.02-.1.25-.41.32-.54.47-.91.24-1.03.12-1.96-.22-1.69-.34-3.16-.86-4.8-.32-1.02-.87-1.89-1.21-2.93-.09-.28-.12-.62-.21-.88-.31-.89-1.82-1.97-1.91-2.82-.13-1.17.79-.36,1.14.06.21.25.42.74.63.95.14.14.46.23.57.41.23.39.33.7.25,1.1.46-.07.38.41.7.61.35.21.82.42,1.16.64.38.25.81.71,1.24.94.74.39.46.29.95.89.29.36,1.12.89,1.5,1.31.2.21.48.74.69.88.12.08.32.11.42.21.26.26.45.92.73,1.12.16.12.37.11.51.25.09.09.16.33.28.38.09.03.18-.05.28-.02.09.02.22.22.35.25.15.04.36-.04.46.09.06.08.09.33,0,.39-.02.02-.51.08-.57.08-.32-.03-.41-.65-.76-.54-.13.04-.11.54-.08.67.07.47.95,2.18,1.25,2.61.21.32.54.46.61.89l.43-.02c.12-.16-.17-1.04.14-1.27.23-.02.41-.08.63.01.29.13.62.93.93.85.44-.11-.17-1.28-.18-1.55,0-.19.16-.45.14-.64Z"/>
    </g>
  </g>
</svg>