<?xml version="1.0" encoding="UTF-8"?>
<svg id="Calque_2" data-name="Calque 2" xmlns="http://www.w3.org/2000/svg" viewBox="0 0 506.11 18.37">
  <defs>
    <style>
      .cls-1 {
        fill: #db2a54;
      }
    </style>
  </defs>
  <g id="Calque_1-2" data-name="Calque 1">
    <g>
      <path class="cls-1" d="M41.8,3.2h2.05l1.12,1.12v4.49l-7.5-7.5V.2h-12.16v3.01h1.32l1.12,1.12v9.55l-1.32,1.29h-.96L19.3,1.32V.2h-10.87v1.12L1.49,15.17H0v3.01h9.55v-3.01h-2.05l-.76-.73.56-1.32h7.42l.53,1.32-.76.73h-2.13v3.01h23.26v-3.01h-2.08l-1.49-1.49v-5.42l8.99,8.99v.93h8.06V4.13l.93-.93h1.32V.2h-9.55v3.01ZM8.74,9.94l2.39-5.45,2.25,5.45h-4.63Z"/>
      <polygon class="cls-1" points="69.92 11.63 67.12 14.44 65.23 14.44 62.26 12.36 62.26 5.81 64.31 3.76 66.36 3.76 69.92 7.3 69.92 8.43 74.22 8.43 74.22 .2 70.68 .2 70.68 1.12 67.31 0 59.25 0 51.75 3.76 51.75 15 58.49 18.37 68.04 18.37 74.42 15.17 74.42 10.31 69.92 10.31 69.92 11.63"/>
      <polygon class="cls-1" points="95.07 11.8 90.18 15.17 86.81 15.17 86.81 10.67 87.93 10.67 89.45 13.12 92.26 13.12 92.26 4.69 89.45 4.69 87.93 7.14 86.81 7.14 86.81 3.2 91.14 3.2 94.87 5.62 94.87 7.14 98.24 7.14 98.24 .2 75.21 .2 75.21 3.2 76.7 3.2 77.65 4.13 77.65 14.24 76.7 15.17 75.21 15.17 75.21 18.18 98.44 18.18 98.44 10.11 95.07 10.11 95.07 11.8"/>
      <path class="cls-1" d="M151.2,3.2h2.05l1.12,1.12v4.49l-7.5-7.5V.2h-26.07v3.01h1.49l.96.93v10.11l-.96.93h-.99v-5.23h-3.54v1.85l-4.89,3.37h-2.05V4.13l.93-.93h1.88V.2h-14.61v3.01h1.49l.96.93v10.11l-.96.93h-1.49v3.01h45.99v-3.01h-2.08l-1.49-1.49v-5.42l8.99,8.99v.93h8.06V4.13l.93-.93h1.32V.2h-9.55v3.01ZM137.16,13.88l-1.32,1.29h-2.3l-.93-.93V4.13l.93-.93h2.5l1.12,1.12v9.55Z"/>
      <polygon class="cls-1" points="176.07 8.43 175.7 8.43 175.7 11.07 176.07 11.07 180.56 15.56 183.37 15.56 183.37 13.48 181.49 9.75 183.37 6.01 183.37 3.93 180.56 3.93 176.07 8.43"/>
      <polygon class="cls-1" points="183.93 8.43 183.57 8.43 183.57 11.07 183.93 11.07 188.43 15.56 191.24 15.56 191.24 13.48 189.35 9.75 191.24 6.01 191.24 3.93 188.43 3.93 183.93 8.43"/>
      <path class="cls-1" d="M243.6,7.5h-.93V3.2h3.57l3.93,2.61v1.49h3.37V.2h-31.69v3.01h2.05l1.12,1.12v4.49l-7.5-7.5V.2h-26.07v3.01h1.49l.96.93v10.11l-.96.93h-1.49v3.01h24.22v-3.01h-2.08l-1.49-1.49v-5.42l8.99,8.99v.93h8.06V4.13l.93-.93h2.28l.96.93v10.11l-.96.93h-1.49v3.01h14.97v-3.01h-2.42l-.76-.73v-3.37h.93l1.69,2.42h2.81V5.06h-2.81l-1.69,2.44ZM207.81,13.88l-1.32,1.29h-2.3l-.93-.93V4.13l.93-.93h2.5l1.12,1.12v9.55Z"/>
      <path class="cls-1" d="M295.18,1.32l-4.13,6.55-4.3-6.55V.2h-12.92v3.01h1.49l.96.93v9.92l-1.12,1.12h-1.16l-6.18-13.85V.2h-10.87v1.12l-6.94,13.85h-1.49v3.01h9.55v-3.01h-2.05l-.76-.73.56-1.32h7.42l.53,1.32-.76.73h-2.13v3.01h22.5v-3.01h-1.69l-1.32-1.29v-6.01l6.01,9.38v.93h3.17v-.93l5.98-9.75v6.74l-.93.93h-1.88v3.01h14.44v-3.01h-1.52l-.93-.93V4.13l.93-.93h1.52V.2h-12v1.12ZM257.26,9.94l2.39-5.45,2.25,5.45h-4.63Z"/>
      <polygon class="cls-1" points="318.08 3.93 315.27 3.93 315.27 6.01 317.15 9.75 315.27 13.48 315.27 15.56 318.08 15.56 322.57 11.07 322.94 11.07 322.94 8.43 322.57 8.43 318.08 3.93"/>
      <polygon class="cls-1" points="310.21 3.93 307.41 3.93 307.41 6.01 309.29 9.75 307.41 13.48 307.41 15.56 310.21 15.56 314.71 11.07 315.07 11.07 315.07 8.43 314.71 8.43 310.21 3.93"/>
      <polygon class="cls-1" points="375.53 3.2 375.53 .2 367.3 .2 367.3 3.2 369.18 3.2 369.18 3.93 366.74 9.94 363.93 3.2 365.81 3.2 365.81 .2 353.06 .2 353.06 3.2 354.74 3.2 352.13 9.94 349.52 3.93 349.52 3.2 351.57 3.2 351.57 .2 337.52 .2 337.52 3.2 339.01 3.2 345.39 17.25 345.39 18.18 353.25 18.18 353.25 17.25 356.62 8.43 360.19 17.25 360.19 18.18 368.06 18.18 368.06 17.25 374.04 3.2 375.53 3.2"/>
      <path class="cls-1" d="M389.8,1.32V.2h-10.87v1.12l-6.94,13.85h-1.49v3.01h9.55v-3.01h-2.05l-.76-.73.56-1.32h7.42l.53,1.32-.76.73h-2.13v3.01h14.61v-3.01h-1.49l-6.18-13.85ZM379.24,9.94l2.39-5.45,2.25,5.45h-4.63Z"/>
      <path class="cls-1" d="M474.99,3.2h2.05l1.12,1.12v4.49l-7.5-7.5V.2h-26.07v3.01h1.49l.96.93v10.11l-.96.93h-1.16l-6.74-9.55,3.76-2.42h2.61V.2h-11.24v3.01h1.88v.56l-6.01,4.1V3.76l.56-.56h1.69V.2h-36.94v7.87h3.37v-1.88l3.01-2.98h.76v11.04l-.96.93h-2.42v3.01h16.1v-3.01h-2.44l-.93-.93V3.2h.76l2.98,2.98v1.88h3.37V3.2h.99l.96.93v10.11l-.96.93h-1.49v3.01h13.48v-3.01h-1.32l-.56-.56v-2.61l1.88-1.32,3.17,4.49h-1.69v3.01h36.24v-3.01h-2.08l-1.49-1.49v-5.42l8.99,8.99v.93h8.06V4.13l.93-.93h1.32V.2h-9.55v3.01ZM460.94,13.88l-1.32,1.29h-2.3l-.93-.93V4.13l.93-.93h2.5l1.12,1.12v9.55Z"/>
      <polygon class="cls-1" points="500.1 5.81 496.37 5.81 494.12 4.89 494.12 3.76 495.16 3.01 498.05 3.01 501.62 5.25 501.98 5.81 505.16 5.81 505.16 .2 502.18 .2 502.18 .96 499.37 0 491.11 0 485.13 3.01 485.13 8.82 491.51 12 494.88 12 497.12 12.92 497.12 14.44 495.8 15.37 493.56 15.37 489.06 12.19 488.7 11.63 485.13 11.63 485.13 18.18 488.13 18.18 488.13 17.25 491.31 18.37 500.1 18.37 506.11 15.37 506.11 8.82 500.1 5.81"/>
    </g>
  </g>
</svg>