<?xml version="1.0" encoding="UTF-8"?>
<svg id="Calque_2" data-name="Calque 2" xmlns="http://www.w3.org/2000/svg" viewBox="0 0 1692.15 791.26">
  <defs>
    <style>
      .cls-1 {
        fill: #eaeaea;
      }
    </style>
  </defs>
  <g id="Calque_1-2" data-name="Calque 1">
    <g>
      <polygon class="cls-1" points="1620.09 201.76 1641.11 266.45 1629.12 275.17 1574.08 235.18 1519.06 275.16 1507.06 266.45 1528.08 201.76 1471.84 160.9 1476.14 147.68 1545.65 147.68 1567.42 80.69 1580.75 80.69 1602.52 147.68 1672.03 147.68 1676.33 160.9 1620.09 201.76"/>
      <g>
        <path class="cls-1" d="M1076.36,7.48c5.74,6.5,6.78,13.9,11.22,20.29,9.13,13.12,24.87,26.05,28.85,41.92.85,3.37.34,9.28,2.27,12.27,1.35,2.09,6.79,3.18,9.27,5.76,12.64,13.12,12.39,25.11,14.78,41.94.43,3.04-.47,6.59.31,9.38.41,1.46,8.53,10.82,10.26,13.97,5.18,9.42,5.15,15.17,13.73,23.1,1.99,1.84,4.46,2.17,6.29,4.37,5.79,6.95,6.82,23.19,15.04,30.52,2.21,1.97,5.5,2.78,8.28,5.29,6.55,5.9,9.77,16.31,16.98,21.8,1.57,1.2,3.75,1.14,5.25,2.5,4.72,4.26,9.25,14.74,13.66,20.26,2.51,3.15,12.55,14.37,15.47,16.54,2.53,1.87,6.89,2.96,8.68,4.9,2.52,2.73,3.63,8.57,7.28,12.1,4.16,4.02,10.41,5.07,14.54,9.66,3.86,4.29,6.04,10.23,9.75,14.52,3.47,4.01,8.32,6.07,11.58,9.71,6.89,7.69,6.71,8.18,15.06,15.03,3.37,2.77,5.8,7.67,8.59,10.32,7.38,7.05,18.89,13.73,26.3,20.71,2.83,2.67,5.92,8.11,8.74,10.65,2.78,2.5,6.34,3.01,9.24,5.29,3.36,2.64,5.85,8.75,8.62,10.77,6.42,4.68,13.98,8.6,20.43,14.47,6,5.46,9.63,14.68,15.29,19.82,5.05,4.57,12.33,10.67,17.72,15.03,6.91,5.58,18.39,12.3,24.64,18,2.44,2.22,4.12,5.98,7.32,8.19,5.8,4,17.93,10.05,22.75,14.09,3.24,2.71,5.29,8.08,9.68,11.64,15.29,12.41,30.78,24.97,46.02,37.35,10.87,8.83,19.25,18.26,29.62,27.57,3.09,2.77,5.59,8.24,8.23,10.19,2.23,1.65,5.88,2.08,8.65,3.96,3.27,2.22,6.08,6.71,9.27,9.14,10.47,7.97,20.78,15.94,31.61,23.64,13.73,9.77,24.62,12.94,30.23,30.84,1.52,4.86,1.37,10.07,3.6,14.33-7.55-1.05-4.24,15.87-2.02,18.76,2.73,3.55,8.2,1.01,8.62-3.97.31-3.71-5.34-10.37-6.56-14.31,8.28-6.91,10.89-1.24,17.5,2.83,1.86,1.15,4.32,1.13,6.24,2.49,8.66,6.15,10.47,23.38-2.19,25.98-4.93,1.01-5.68-1.07-8.72-1.5-13.84-1.98-19.51-3.75-26.62-17-1.87-3.48-2.94-9.32-4.62-11.85-1.67-2.51-9.61-5.97-12.32-8.53-5.16-4.88-8.98-13.32-13.48-18.99-11.13-14.02-18.37-21.89-32.49-32.46-9.72-7.27-19.06-14.5-28.51-21.89-4.61-3.61-6.91-10.73-13.53-11.67-2.53-.36-9.43-.6-10.73,1.97-2.35,4.65,5.21,7.18,7.8,9.68,5.26,5.07,12.47,13.99,17.87,19.93,5.22,5.74,9.58,19.23,13.07,21.88,1.87,1.42,4.06-.11,6.57,1.06,5.79,2.69,8.99,12.7,12.53,17.6,4.13,5.7,11.86,10.57,14.44,17.55,2.14,5.75,5.45,22.98,4.36,28.71-2.07,10.83-29.04,10.62-33.91,1.81-6.11-11.06-6.22-25.73-17.14-35.21-3.06-2.65-6.78-3.36-9.6-6.88-3.41-4.27-5.84-10.63-9.7-15.5-1.15-1.45-3.31-1.76-4.31-3.44-1.3-2.2-1.34-6.37-2.77-8.78-2.07-3.47-5.09-4.7-7.39-7.46-1.92-2.3-3.86-7.32-5.43-8.89-3.42-3.41-12.75-4.04-17.33-5.77l-1.06.85c-.19,7.41-6.51,18.03-14.52,18.53-2.17.14-15.36-3.18-18.35-4.03-2.68-.77-5.39-1.44-7.86-2.8-6.85-3.78-5.35-8.05-8.33-13.97-1.69-3.36-4.4-6.17-5.89-9.62-7.48-17.34-14.23-40.18-31.91-50.49-6.56-3.82-14.37-2.86-19.64-5.57-5.17-2.65-11.46-17.76-16.53-17.39-6.52,7.64-1.4,12.89.14,20.21,2.34,11.08,2.68,11.95,6.81,22.27,4.63,11.59,8.17,23.45,11.35,35.18,2,7.36,5.11,15.68,8.54,22.48,3,5.95,12.48,15.9,9.68,22.78-2.77,6.82-9.11,8.8-14.73,3.6-4.25-3.93-11.12-17.1-14.12-22.71-4.08-7.64-13.53-24.28-16.03-31.47-1.49-4.3-1.13-9.09-2.95-13.53-2.21-5.4-7.82-10.32-12.03-14.15-1.07-.24-1.96.66-2.26,1.61-2.62,8.41,5.81,19.58,1.76,28.45-10.77-2.11-15.81-1.36-23.25-10.18-9.23-10.94-19.87-45.24-18.42-59.14.27-2.58,1.6-4.58,1.87-6.86.86-7.4-1.05-14.82-3.96-21.56-9.12-2.84-9.28,7.43-16.87,8.49-19.24,2.68-20.17-20.51-28.11-31.86-4.71-6.73-10.82-9.31-16.1-17.83-5.51-8.89-11.04-20.33-15.47-29.89-3.25-7.02-4.54-13.99-9.57-20.69-1.89-2.52-6.02-5.51-7.73-7.99-4.41-6.38-6.47-14.06-14.08-18.65-5.25,8.72-13.73,17.32-23.98,9.7-11.89-8.85-24.08-27.99-29.03-42.01-1.64-4.64-1.1-9.27-2.51-13-3.65-9.7-19.9-28.79-26.21-38.74-3.12-4.93-12.9-26.33-17.3-27.26-4.01-.85-8.71,11.85-11,14.83-1.04,1.36-11.51,10.18-12.62,10.65-3.88,1.64-12.52.33-15.52-2.86-3.79-8.71-9.96-16.37-13.72-25.06-1.65-3.81-2.19-8.13-3.81-11.7-2.85-6.29-7.19-8.22-7.58-16.74-.41-8.91,7.78-8.61,14.48-8.08,2.78-10.73-5.22-12.97-9.13-19.48-2.82-4.71-3.02-12.08-7.8-16.44-4.02-3.66-12.58-2.57-13.12,3.53-.12,1.33.85,9.82,1.18,11.32,1.94,8.64,7.35,18.04,3.17,27.85-.79,1.85-2.47,2.9-2.88,3.9-3.42,8.28,2.48,18.22,2.46,25.66-.01,4.99-2.95,10.64-3.06,15.52-.25,11.49,4.34,14.21-1.09,27.91-3.84,9.69-10.07-1.31-15.6-4.37-7.19-3.97-14.45-3.31-15.97-13.89l7.06-4.32c.82-1.65.75-8.13.49-10.22-.68-5.5-4.86-7.47-6.15-12.27-1.33-4.95-1.99-13,.43-17.64,2.03-3.89,8.03-4.99,7.64-9.32-4.81.74-9.12-7-12.99-6.81-1.58.08-8.5,4.07-9.37,5.28-4.7,6.55,5.03,25.32,6.62,32.29.55,2.4-.09,4.91.45,7.3,2.13,9.45,7.12,25.86,6.53,35.01-.36,5.59-2.65,7.91-8.11,7.31-11.22-1.22-6.66-13.22-16.58-20.28-12.62-8.97-15.8,2.84-28.17,2.95-10.25.09-3.09-16.56-13.96-18.96-4.62-1.02-23.25,5.28-26.64,8.3-.47.41-7.84,8.75-8.17,9.28-1.95,3.12-2.03,8.08-3.57,10.97-2.55,4.77-7.05,4.78-6.17,13.05.64,5.96,8.88,12.94,13.57,16.52,7.51,5.73,11.45,8.33,18.84,15.09,12.92,11.81,27.52,24.47,39.75,36.88,5.35,5.43,8.47,12.64,13.09,17.92,2.73,3.11,7.03,4.53,10.19,8.19,7.3,8.46,18.65,23.54,26.58,30.61,3.02,2.69,7.47,3.22,10.27,6.21,4.41,4.68,7.31,16.02,11.26,21.7,2.35,3.37,5.46,4.34,7.61,6.93,1.77,2.14,2.29,5.52,4.32,7.31,3.62,3.2,8.86,1.4,13.37,2.14,4.07.68,17.63,5.58,21.36,7.72,5.33,3.06,12.13,9.58,13.23,15.86.2,1.12.95,10.72.85,11.38-.61,3.96-5.23,4.67-4.7,11.82.49,6.6,6.07,15.3,6.53,19.51.38,3.42-2.61,8.11-2.55,11.41.09,4.76,10.95,25.75,3.13,27.64-5.49,1.32-11.33-12.78-16.54-15.15-3.91-1.78-7.14-.68-11.14-.25-5.64,4.12-.49,19.85-2.56,22.68l-7.7.41c-1.25-7.66-7.01-10.24-10.8-15.85-5.24-7.76-20.98-38.25-22.25-46.57-.35-2.32-.82-11.23,1.53-11.98,6.2-1.98,7.79,9.09,13.53,9.61,1.01.09,9.72-1.09,10.15-1.38,1.61-1.09,1.18-5.48.03-6.95-1.76-2.24-5.51-.93-8.1-1.59-2.3-.59-4.68-4.09-6.27-4.48-1.85-.46-3.48,1.02-5.09.39-2.12-.83-3.29-5.1-4.94-6.75-2.51-2.51-6.22-2.34-9.15-4.42-4.96-3.54-8.46-15.3-13.03-19.93-1.8-1.82-5.31-2.34-7.42-3.76-3.74-2.54-8.82-11.91-12.35-15.74-6.87-7.46-21.6-16.98-26.75-23.39-8.61-10.72-3.74-8.88-16.87-15.87-7.58-4.04-15.21-12.37-22.03-16.75-5.93-3.81-14.4-7.55-20.63-11.36-5.8-3.55-9.87-8.89-18.08-7.61,1.41-7.05,5.06-15.94,1.02-22.82-1.9-3.24-7.7-4.88-10.16-7.29-3.69-3.61-7.5-12.33-11.24-16.88-6.24-7.57-22.55-21.87-20.22-1.09,1.7,15.21,28.58,34.39,34.04,50.29,1.58,4.59,2.11,10.76,3.71,15.67,6.05,18.53,15.78,33.91,21.56,52.12,9.3,29.29,11.35,55.38,15.3,85.52,2.16,16.47,6.28,18.68-2.13,34.86-1.22,2.34-6.04,7.92-5.61,9.63,2.19,3.36,7.03,4.09,9.62,6.95,7.3,8.03,8.89,19.24,12.89,28.79,4.91,11.73,9.22,19.89,13.03,32.54,4.06,13.49,9.89,20.26,14.97,32.53,3.36,8.12,4.62,17,7.8,25.16,2.78,7.17,11.11,19.34,11.31,26.5.13,4.52-2.59,7.07-3.69,10.66-3.35,10.89,6.26,15.68-10.6,21.39-4.53,1.53-12.38,4.33-16.1.29-2.53-2.75-10-22.56-10.95-26.85-1.7-7.65.71-14.84-.48-21.83-.7-4.1-3.84-7.66-5.09-11.38-5.03-14.97-5.08-37.32-18.24-48.16-1.92-1.58-5.07-1.86-7.5-3.66-4.14-3.07-6.69-10.2-10.11-14.12-2.7-3.1-5.46-3.69-7.78-5.79-8.56-7.75-27.55-34.12-31.96-44.62-6.35-15.11-2.15-26.69-.51-42.13,1.56-14.73-4.59-13.5-12.83-20.89-7.11-6.39-11.63-15-23.44-12.66-1.22.89-.64,5.6-.34,7.15,1.61,8.38,7.33,27.56,12.37,34.15,3.31,4.32,8.17,5.41,11.18,9.1.28,2.25-8.45,11.62-10.38,14.97-4.57,7.9-5.95,13.39-3.86,22.6,2.03,8.94,8.48,21.93,9.78,30.93,1,6.91-.65,12.16,1.51,19.82,2.99,10.58,7.79,11.15,12.54,18.48,5.43,8.39,17.82,39.46,18.04,48.93.22,9.66-1.04,10.23,2.86,20.32,4.87,12.6,13.31,23.63,20.22,35.11,1.55,5.6-9.8,7.23-13.41,5.58-3.83-1.75-14.1-21.66-16.18-26.46-8.95-20.68-14.8-46.89-24.64-66.48-6.83-13.6-19.95-33.54-24.6-47.13-4.6-13.46-7.58-28.83-11.86-42.42-5.42-17.17-15.47-39.13-18.46-56.18-.79-4.51.82-7.45.54-11.12-1.28-16.98-13.78-39.77-16.04-57.72-1.47-11.71-.46-20.71-5.32-32.49-5.07-12.3-17.32-12.62-22.27-25.23-1.99-5.07-2.3-13.41-3.96-19.3-2-7.07-6.97-13.43-5.58-21.45,8.99-2.9,14.56-7.66,13.48-17.95-3.67-2.05-8.09-.39-11.75-1.34-3.06-.79-9.06-8.87-12.28-4.05-1.34,2.01-1.34,7.36-2.27,10.33-6.23,19.92-8.41,35.21-16.97,54.77-7.7,17.6-15.63,44.16-27.83,58.44-3.6,4.21-5.63,1.81-4.33,10.11,2.22,14.13.79,14.46-2.23,27.93-3.28,14.67-6.23,28.52-4.52,43.75.36,3.18,2.39,6.41,1.86,9.74-.63,3.95-11.48,9.9-14.58,12.63-5.13,4.52-7.93,10.63-13.43,14.75-1.18,4.58,11.75,14.12,4.78,22.87-1.23,1.55-8.61,3.97-10.7,4.18-7.69.8-12.09-7.89-19.34-9.85-7.09-4.26-12.74-17.21-6.72-24.05,5.79-6.58,20.71-6.92,22.12-14.71.38-2.12-.33-4.6.12-6.67.82-3.74,2.84-7.4,3.57-10.97,2.11-10.39-.08-22.57,1.28-32.64.4-2.95,2.66-6.26,2.76-8.88.25-6.02-2.68-14.77-2.74-20.39-.11-11.64,3.02-28.05,7.16-39.15,3.54-9.49,10.52-12.43,19.36-15.54,1.25-4.5,8.15-9.21,9.05-13.28,1.08-4.88-2.78-10.13-2.8-15.29-.01-3.75,2.04-7.85,2.09-11.64.08-6.34-2.37-12.96-.59-19.89,2.44-9.51,14.99-19.77,20.31-28.16,2.35-3.72,5.46-12.78,7.64-15.14,1.92-2.08,7.91-3.55,10.9-6.06,1.41-1.19,9.89-11.24,10.62-12.64.52-.98.62-1.82.48-2.9-7.17-2.1-13.3-4.62-18.38-10.22-2.96-3.26-5.78-9.82-8.25-12.11-6.58-6.09-16.69-11.5-23.74-17-6.66-5.2-17.01-18.32-24.03-22.69-2.44-1.52-5.68-1.87-7.97-3.45-2.36-1.63-5.58-6.89-7.86-8.63-6.73-5.17-16.39-10.54-23.13-15.64-17.17-12.99-34.27-29.17-50.5-43.53-6.43-5.69-8.4-14.76-13.05-18.94-7.39-6.64-26.73.75-25.7,11.15.49,5,10.2,4.65,12.66,6.99.73.69,5,8.78,5.31,9.95,2.2,8.42,1.4,11.73,7.7,19.44,10.55,12.93,28.14,5.05,33.08,25.17.47,1.9-.35,3.58,0,4.89,5.14,19.14,40.81,25.34,56.31,34.68,6.62,3.99,12.3,10.81,20.29,14.61,9.45,4.5,19.77,6.34,29.19,10.56,4.92,2.21,9.43.65,9.02,8.42-.24,4.66-3.08,5.76-3.71,7.99-.89,3.15,1.42,10.06-5.8,8.39-4.04-.94-5.65-4.91-7.27-5.55-1.97-.77-3.51.49-4.98.26-6.23-.96-14.85-8.31-21.36-10.62-5.33-1.89-11.05-1.09-15.79-2.63-6.78-2.21-18.63-12.25-24.28-16.66-8.9-6.94-28.83-23.18-38.96-25.77-3.58-.91-7.81-.53-11.47-.25-2.18,4.71-5.16,9.99-7.04,14.76-3.14,7.98-3.46,9.04-7.52,16.71-6.63,12.52-6.61,17.52-9.12,30.62-1.48,7.7-8.71,19.57-9.39,28.47-.37,4.8,1.87,10.35,1.43,14.95-.52,5.38-5.85,13.12-6.89,19.29-1.8,10.62,1.15,16.72-8.64,25.29-14.72,12.88-21.47,1.95-36.38-1.54-1.86.94-3.36,7.53-4.65,9.96-2.43,4.6-5.95,8.25-7.29,14.03-.95,4.11-.16,7.3-.72,10.92-.77,4.96-16.13,18.38-21.25,19.49-8.12,1.75-13.48-9.94-12.58-16.45.71-5.15,7.71-12.11-4.39-11.24-9.42.68-10.57,9.9-15.18,15.87-8.23,10.64-13.55,14.77-18.72,28.78-4.68,12.68-8.6,25.8-14.25,38.1-4.02,8.76-26.41,18.75-28.7,29.46-.71,3.33.76,7.58-2.75,9.85-1.14.74-9.11,3.02-10.47,2.96-5.9-.26-9.99-6.4-11.97-11.33-2.28-5.69-3.05-21.28-8.92-23.1-5.73-1.77-16.86,6.74-23.81.68-1.7,3.48-5.91,6.77-7.69,9.61-1.14,1.82-5.18,17.26-5.39,19.84-.66,8.05,4.08,16.56,2.69,24-.5,2.66-3.45,6.46-3.61,9-.21,3.33,1.58,6.65.71,11.36-1.7,9.18-10.68,18.99-12.27,30.37-1.13,8.11-2.8,14.96-3.92,22.25-1.85,12.03,4.46,16.4-10.51,21.48-6.33,2.14-17.54,6.09-20.5-2.22-1.25-3.51-3.78-18.75-2.78-22.04.49-1.63,2.45-1.87,2.79-5,.46-4.18-1.52-6.44-1.93-9.8-2.17-17.5,15.77-39.66,14.88-61.97-.14-3.5-.16-6.19-4.03-7.05-9.6-2.12-14.57,3.73-17.61,12.01-3.82,10.43-3.72,26.34-7.62,37.19-1.43,3.97-6.68,14.12-9.02,17.7-.96,1.46-5.07,4.09-5.74,5.33-1.37,2.54-1.6,5.71-3.11,8.32-.9,1.56-7.87,11.51-8.56,11.85-4.97-.13-16.91.07-19.81-4.46-2.42-3.79-2.46-14.11-3.68-18.61-.92-3.4-3.85-6.98-5.08-10.43-1-2.8-1.67-10.79-2.37-11.88-.3-.47-7.93-7.07-8.4-7.36-8.93-5.55-6.56,9.37-7.25,13.87-1.22,7.97-15.44,7.68-20.24,10.78-1.42.92-4.3,5.71-6.9,7.64-2.38,1.77-8.72,4-10.35,5.65-1.51,1.53-3.86,7.47-6.57,10.4-4.07,4.4-13.93,12.37-18.98,15.92-7.33,5.15-34.05,18.67-42.23,18.91-8.51.25-10.25-5.24-16.76-9.12,6.89-13.55,28.49-10.85,38.14-20.95,8-8.37-2.1-12.69,1.78-20.53,1.8-3.64,5.98-5.14,8.49-7.98,2-2.27,11.27-15.67,12.65-18.37,1.91-3.74,3.29-11.66,5.82-14.53,3.17-3.6,20.08-11.13,25.29-14.46,10.93-7,20.13-22,29.42-31.65,9.3-9.66,24.39-23.07,35.5-30.41,13.57-8.97,27.09-17.37,39.86-27.77,11.47-9.35,22.58-21.79,34.19-30.98,3.94-3.12,10.86-6.35,14.56-9.67,11.92-10.71,23.15-23.23,36.08-32.95,4.99-3.75,13.38-7.03,18.18-10.69,3.61-2.76,4.68-6.49,7.3-9.22,10.13-10.55,21.34-20.49,31.58-30.87,8.48-8.59,16.02-11.43,23.67-18.53,3.86-3.59,6.24-8.43,10.7-12.56,13.98-12.98,26.04-26.82,32.36-45.19,7.5-21.8,16.14-33.12,16.13-57.62,0-8.34-4.08-17.42-3-27.15.23-2.09,4.32-17.8,5.05-19.19,1.5-2.89,10.11-6.65,13.38-5.06,1.07.52,5.1,8.38,5.61,9.91,1.42,4.22.17,11.34,4.77,12.67,10.28,2.99,8.72-5.71,12.44-11.38,4.15-6.31,12.23-12.8,16.82-19.09,3.28-7.29-2.38-13.13-2.85-20.17-.33-4.97,1.17-9.7,1.43-14.59,1.19-22.32,1.78-34.69,19.45-49.92,6.59-5.68,4.64-15.9,6.23-17.03,4.09-2.9,8.52,4.08,11.24,6.34,1.77,1.47,4.23,2.42,5.79,3.9,10.2,9.68,5.11,19.45,11.39,30.29,1.73,2.98,6.06,6.01,7.07,9.41,1.68,5.66-.36,12.36,3.46,18.84,7.33,5.03,21.43,25.55,29.72,26.6,6.21.78,5.24-5.96,7.97-10.02,4.68-6.94,14.29-10.36,22.36-7.8.63.2,10.1,7.18,10.63,7.79,3.42,4,.61,12.99,5.94,20.23,4.46,6.06,9.87,3.47,13.45,12.72,2.53,6.55,2.65,19.99,6.09,24.45.41.54,10.58,7.46,11.23,7.64,4.3,1.18,9.81-1.21,15.05-.47,8.86,1.26,6.31,7.79,8.82,14.44,2.74,7.26,9.5,19.66,13.21,27.5,6.17,13.04,16.36,19.74,22.2,35,1.94,5.07.04,10.93,7.14,10.21,6.6-.67,6.61-6.73,10.75-9.69,5.5-3.94,14.03-5.55,19.8-10.25,9.56-7.79,7.94-16.53,24.08-20.52,6.23-1.54,19.22-.83,25.92-.22,12.86,1.16,19.95,13.42,33.23,15.31,7.94,1.13,8.86-6.85,18.16,1.16,1.51,1.3,1.97,3.61,3.98,4.74,2.75,1.55,5.34.64,8.1,1.6,2.29.8,11.93,11.4,11.63,3.01-.3-8.37-8.03-9.2-6.3-20.06,1.79-11.24,14.43-23.62,20.73-32.58,5.72-8.14,7.45-19.72,16.31-25.37,2.88-1.83,9.29-3.07,11.04-5.44,2.23-3.01,1.58-9.58,4.77-13.66,4.55-5.82,12.17-10.66,17.49-15.46,6.62-5.97,10.28-10.91,10.72-20.35.22-4.83-2.47-8.48-1.98-12.53.52-4.27,6.15-10.19,6.45-14.76.22-3.38-6.92-29.81,4.1-23.06,2.81,1.72,7.14,8.23,9.5,8.93.89.26,10.18,1.07,11.48,1.03,2.95-.08,6.96-4.03,10.16-5.17,7.06-2.52,13.26-1.67,19.05-8.57,2.78-3.32,1.21-5.64,1.97-8.21,1.01-3.42,2.66-6.58,3.53-10.05,2.04-8.13,3.21-21.54,6.02-28.88,1.35-3.52,9.28-8.24,12.72-7.11,7.35,2.42,7.52,9.43,7.08,16.06,6.27,5.71,14.64,1.82,20.39-2.68,4.61-3.61,10.21-11.38,13.96-16.09,6.64-8.35,2.87-29.21-2.9-37.67-2.09-3.06-5.94-5.17-7.93-8.55-2.95-5.01-5.48-11.99.5-15.5,8.58-5.04,12.46-1.2,18.08,5.16ZM1234.72,264.98c-2.38-2.38-5.78.92-7.47,1.28-4.15.87-10.54-11.03-14.1-13.15-2.46-1.46-5.17-1.19-7.79-2.87-8.06-5.15-9.67-12.39-14.04-18.92-1.88-2.81-6.29-5.33-8.16-8.32-3.83-6.13-9.01-27.44-15.15-30.41-3.11-1.5-5.78-.14-9.22-3.38-1.52-1.43-17.08-23.66-17.96-25.66-2.22-5.04.27-8.33-.33-13.23-4.25-1.5-7.79-.87-11.57-3.95-4.48-3.66-8.4-8.19-13.71-12.46-8.2-6.6-1.27-10.63-1.41-17.88-.04-2.15-1.8-9.02-3.51-10.16-1.13-.75-13.48-3.03-15.44-3.05-3.99-.05-6.55,1.95-9.72,2.06-3.49.12-8.95-2.5-12.02-1.52-3.28,3.26-8.49,5.87-11.73,8.71-4.26,3.74-6.19,8.6-10.17,12.12-4.04,3.57-10.47,5.3-13.96,8.33-2.6,2.27-10.42,15.13-9.66,18.16,1.5,2.2,7.64,5.39,10.17,5.48,1.06.04,9.94-3.53,10.76-4.14,2.25-1.66,4.94-6.63,8.97-7.99,3.43-1.16,14.73-3.16,18.18-3.04,1.25.04,2.23.33,3.21,1.12,1.64,1.71.45,6.98,2.88,10.7,2.02,3.1,9.42,12.05,12.11,15.03,3.52,3.89,7.54,5.33,10.69,8.7,5.16,5.5,7.18,14.11,14.34,18.62,2.48,1.57,5.73,2.15,7.98,3.69,8.02,5.48,16,21.45,23.07,28.76,2.41,2.49,6.9,4.5,9.27,6.72,4.17,3.92,8.47,12.43,12.62,15.49,2.72,2.01,6.44,1.88,9.43,4.63,6.12,5.63,8.7,16.39,13.49,22.86,2.84,3.83,7.58,6.95,10.51,10.81,3.02,3.97,4.3,8.77,6.93,12.46,2.18,3.06,6.37,4.98,7.23,8.78,2.09.57,2.31-.82,2.62-2.64.75-4.35-1.36-15.06,3.84-16.55,3.66-1.05,8.3,1.27,10.72-3.82,1.68-3.55.14-19.31-1.91-21.35ZM1108.49,228.37c2.2,2.03,5,6.21,6.78.57,3.28-10.42-8.35-21.06-14.13-28.64-5.31.28-16.17-3.1-11.48,5.7,1.72,3.23,6.56,6.28,8.6,8.84,3.63,4.56,5.68,9.33,10.24,13.53ZM1155.44,281.25c.64-5.38-1.94-9.81-2.78-15.14-.48-3.01.48-6.72-.32-9.38-.89-2.96-5.93-5.77-7.58-7.93-3.03-3.97-3.13-10.6-8.69-12.14-.19,2.23-2.1,3.87-1.95,6.22.16,2.58,3.81,7.14,3.7,8.65-.16,2.04-3.01,3.54-3.5,5.2-1.47,5.01,1.47,14.15,6.05,16.81,2.07,1.21,4.13.78,6.1,1.65,3.33,1.48,4.79,6.59,8.97,6.05ZM958.41,259.68c3.59-3.82-1.46-19.44-6.81-18.06-5.1,1.31-3.19,9.19-3.65,12.93-.31,2.51-4.92,8.51,1.37,8.25,1.56-.06,8.13-2.1,9.09-3.12ZM499.86,246.56c-6.27,1.83-2.8,12.22-1.6,16.7,1.51,5.64,4.88,19.18,12.51,12.62,3.01-2.59,1.48-7.01,2.18-10.41.56-2.7,3.49-5.85,4.21-8.44,2.06-7.44-11.24-12.24-17.31-10.47ZM391.91,398.88c5.09-4.02,12.55-2.62,18.07-10.52,2.29-3.28,10.34-20.1,11.68-24.19,4.87-14.87,6.65-33.81,16.86-46.15,2.28-2.75,8.24-5.54,11.23-8.16,17.06-14.92,11.85-16.68,13.55-36.86.49-5.87,5.14-9.39-2.59-13.94l-2.71.88c-3.82,6.37-12.41,12.84-15.82,19.08-1.8,3.29-1.71,5.78-3.04,8.6-1.61,3.42-6.5,7.27-8.55,10.83-6.07,10.51-8.55,24.64-15.75,34.66-6.75,9.4-14.97,15.06-22.82,22.74-3.53,3.46-5.76,8.96-9.64,11.68-3.44,2.41-7.78,2.81-11.2,5.28-4.91,3.56-5.73,8.84-9.15,13.15-3.64,4.6-10.16,7.46-13.91,12.23l-1.13,11.97c15.18-5.16,14.24,19.11,24.86,20.16,1.97.19,8.88-4.37,9.93-6.2,1.75-3.06.75-6.61,1.55-10.08.56-2.45,6.76-13.72,8.59-15.16ZM1266.34,316.77c-.99-1.11-1.24-2.81-2.31-4.03-1.82-2.07-9.83-11.56-11.32-11.97-1.25-.35-2-.3-2.77.81-.76,1.14-.78,14.81-.4,16.93.96,5.43,6.5,10.37,5.84,18.48-.47,5.79-9.68,10.83-8.66,16.25.19,1,4.28,7.68,5.16,8.5,4.27,4.03,12.71,9.43,17.48,13.54,5.15,4.44,8.9,10.15,9.13,17.13.16,4.89-1.84,8.51-.43,13.92.72,2.78,10.43,20.05,12.61,20.1,2.5-2.53,8.89-2.08,9.26-6.11.5-5.49-8.47-15.54-4.44-23.77.66-1.35,10.42-12.67,11.21-13.02,3.99-1.73,12.98.57,11.58-7.69-1.48-8.71-9.2-12.53-14.48-18.52-3.85-4.37-6.36-10.39-9.72-14.52-3.62-4.46-10.11-7.27-14.5-11.63-3.88-3.85-9.41-10.15-13.22-14.41ZM735.15,338.04c-.72-1.05-1.82-5.77-3.84-2.54-.87,1.39-.76,9.88-2.39,12.63l8.57-2.08c.97-3.86-.65-5.52-2.34-8.01ZM784.77,342.93c-.9,1.1-3.95,2.33-3.43,4.62,1.42,6.29,23.12-1.74,16.32-8.54-5.81-5.81-9.29-.46-12.89,3.92ZM477.84,361.7c2.01-1.53.15-7.53-2.41-8.7-3.79,1.86-.1,10.61,2.41,8.7ZM477.48,386.13c-2.83.54-5.49,7.14-.17,9.59,7.43,3.41,8.46-11.19.17-9.59ZM1343.5,419.88c-.37-1.81.91-3.83.85-5.39-.09-2.24-9.6-17.21-11.5-14.97-.24,2.29.08,4.39.66,6.6.57,2.17,6.9,16.76,9.99,13.75ZM311.87,472c1.47-2.75,1.2-6.05,2.21-8.94,5.72-16.33,16.68-28.31,23.49-44.37.73-1.72,1.94-3.24,3.12-4.66.93-2.56-6.24-2.19-7.75-1.9-4.23.82-6.67,8.19-9.57,11.26-2.83,3-7.84,5.18-10.85,8.06-8.91,8.52-11.45,12.46-22.62,20.04-7.75,5.26-7.33,5.25-13.79,11.42-1.81,1.73-19.55,12.97-16.38,16.08,6.37.15,9.97-1.72,16.18.78,2.36.95,5.42,4,7.56,4.01,2.56,0,14.51-7.33,18.24-8.85,3.28-1.33,6.95-1.41,10.15-2.94ZM650.39,487.73c.25-4.6-.85-12.88-6.77-12.6-.83,5.97,1.1,10.4,6.77,12.6ZM1401.42,485.92c-2.94.42-4.9,4.32-5.42,7.02l10.01,6.42c3.16-.61,1.23-14.27-4.59-13.44ZM877.97,497.67c-2.34-2.48-5.01-1.13-4.43,2.91.21,1.45,5.74,13.5,7.57,11.38-.08-2.82-1.58-12.64-3.14-14.29ZM1407.97,501.32c-3.48,2.33-.49,12.86,3.85,11.6,4.53-1.31-2.41-9.95-3.85-11.6ZM326.4,518c-17.5-8.77-9.13,17.42-2.16,17.23,6.37-3.33,4.21-11.72,2.16-17.23ZM1479.22,582.73c-9.61-.44-7.04,1.93-6.68,8.25.08,1.35-.68,2.53-.7,3.32-.08,3.43,6.87.91,7.32-.54.4-2.29-1.94-4.71-1.84-6.71.09-1.81,2.3-2.37,1.89-4.32ZM622.28,600.18c-3.5-1.87-18.1,1.89-17.36,6.15.33,1.91,3.75,3.92,5.97,3.36,1.22-.31,12.72-8.11,11.4-9.52Z"/>
        <path class="cls-1" d="M805.2,194.14c3.19,5.68-6.34,15.48-6.64,17.88-1.46,11.84,7.21,21.04-.08,34.77-7.51,14.13-20.64,11.51-33.42,14.87-15.3,4.02-28.7,12.94-44.21,12.79,5.86-5.64,2.95-12.06,4.65-18.81,1.36-5.4,7.36-12.03,8.98-17.84,1.97-7.05.29-13.34,1.44-20.03.55-3.18,2.96-6.08,3.4-8.68.96-5.67,1.15-21.89,4.67-25.52,3.13-3.23,12.95-6.17,17.65-5.58,10.96,1.37,19.16,9.78,27.31,12.94,3.02,1.17,15.34,1.78,16.25,3.2Z"/>
      </g>
    </g>
  </g>
</svg>