<?xml version="1.0" encoding="UTF-8"?>
<svg id="Calque_2" data-name="Calque 2" xmlns="http://www.w3.org/2000/svg" viewBox="0 0 1858.84 873.5">
  <defs>
    <style>
      .cls-1 {
        fill: #db2a54;
      }
    </style>
  </defs>
  <g id="Calque_1-2" data-name="Calque 1">
    <polygon class="cls-1" points="265.52 187.39 277.31 223.69 270.59 228.58 239.71 206.15 208.83 228.58 202.1 223.69 213.89 187.39 182.34 164.47 184.75 157.05 223.75 157.05 235.96 119.46 243.45 119.46 255.66 157.05 294.67 157.05 297.08 164.47 265.52 187.39"/>
    <polygon class="cls-1" points="1527.42 67.93 1539.22 104.23 1532.49 109.12 1501.61 86.69 1470.73 109.12 1464 104.23 1475.8 67.93 1444.24 45.01 1446.65 37.59 1485.66 37.59 1497.87 0 1505.35 0 1517.56 37.59 1556.57 37.59 1558.98 45.01 1527.42 67.93"/>
    <polygon class="cls-1" points="1697.12 368.42 1708.91 404.72 1702.19 409.61 1671.31 387.17 1640.43 409.61 1633.7 404.72 1645.49 368.42 1613.94 345.49 1616.35 338.07 1655.35 338.07 1667.56 300.49 1675.05 300.49 1687.26 338.07 1726.27 338.07 1728.68 345.49 1697.12 368.42"/>
    <g>
      <path class="cls-1" d="M682.78,362.26c1.67.67,3.37,4.81,7.53,5.77,7.5,1.73,5.09-5.41,6.02-8.72.67-2.31,3.62-3.43,3.88-8.27.42-8.07-4.26-6.47-9.39-8.75-9.77-4.39-20.48-6.32-30.28-10.96-8.3-3.94-14.2-11.02-21.05-15.16-16.09-9.71-53.1-16.15-58.45-36.02-.35-1.35.48-3.08,0-5.06-5.13-20.89-23.36-12.69-34.32-26.11-6.54-8.01-5.7-11.44-7.98-20.19-.32-1.22-4.78-9.58-5.51-10.32-2.56-2.43-12.63-2.08-13.14-7.24-1.09-10.8,19-18.49,26.66-11.57,4.84,4.33,6.86,13.75,13.56,19.65,16.82,14.9,34.58,31.69,52.39,45.18,6.99,5.29,17.02,10.86,24,16.21,2.37,1.83,5.7,7.28,8.17,8.98,2.37,1.63,5.74,1.98,8.27,3.55,7.27,4.55,18.01,18.17,24.93,23.56,7.31,5.7,17.82,11.34,24.64,17.66,2.56,2.37,5.48,9.2,8.56,12.56,5.26,5.83,11.63,8.43,19.07,10.61,0,0,4.26,1.38,4.42-4.39v-.03c-.38-1.86-.54-4.1-1.35-6.18-6.06-15.83-16.63-22.79-23.04-36.31-3.84-8.14-10.86-21.02-13.71-28.55-2.6-6.89.03-13.68-9.16-15-5.42-.77-11.15,1.73-15.61.48-.67-.16-11.25-7.34-11.66-7.91-3.56-4.61-3.68-18.55-6.31-25.38-3.72-9.58-9.33-6.89-13.97-13.2-5.54-7.5-2.6-16.82-6.15-20.99-.54-.64-10.38-7.88-11.02-8.07-8.36-2.66-18.36.86-23.2,8.07-2.85,4.23-1.86,11.22-8.3,10.41-8.59-1.09-23.23-22.4-30.83-27.62-3.97-6.7-1.86-13.65-3.59-19.55-1.06-3.53-5.54-6.67-7.34-9.74-6.54-11.28-1.25-21.41-11.82-31.44-1.64-1.57-4.17-2.53-6.02-4.07-2.82-2.34-7.4-9.58-11.66-6.57-1.64,1.15.38,11.76-6.44,17.66-18.36,15.8-18.97,28.65-20.19,51.82-.29,5.06-1.83,9.97-1.51,15.12.48,7.31,6.38,13.4,2.95,20.96-4.74,6.51-13.14,13.23-17.43,19.81-3.88,5.9-2.24,14.9-12.91,11.79-4.78-1.38-3.49-8.75-4.97-13.14-.51-1.6-4.71-9.74-5.83-10.29-3.36-1.66-12.3,2.24-13.88,5.26-.74,1.44-5,17.72-5.22,19.9-1.12,10.09,3.11,19.51,3.11,28.2,0,25.41-8.97,37.17-16.73,59.8-6.57,19.07-19.1,33.42-33.61,46.88-4.62,4.29-7.08,9.33-11.09,13.04-7.95,7.37-15.77,10.32-24.58,19.23-10.64,10.77-22.27,21.09-32.78,32.05-2.72,2.85-3.81,6.7-7.56,9.58-4.97,3.78-13.68,7.18-18.87,11.09-13.43,10.1-25.06,23.07-37.43,34.19-3.85,3.46-11.02,6.83-15.13,10.06-12.05,9.52-23.58,22.43-35.47,32.14-13.27,10.8-27.3,19.51-41.37,28.84-11.54,7.63-27.21,21.53-36.85,31.56-9.64,10-19.2,25.57-30.54,32.85-5.38,3.46-22.94,11.25-26.24,15-2.63,2.98-4.07,11.22-6.03,15.09-1.44,2.79-11.05,16.7-13.14,19.07-2.63,2.95-6.95,4.49-8.81,8.27-4.04,8.14,6.44,12.63-1.86,21.31-10,10.48-32.43,7.69-39.58,21.72,6.76,4.04,8.56,9.74,17.4,9.49,8.49-.25,36.21-14.29,43.84-19.64,5.22-3.68,15.45-11.95,19.68-16.5,2.82-3.04,5.25-9.2,6.83-10.8,1.7-1.73,8.27-4.04,10.74-5.86,2.69-2.02,5.67-6.98,7.15-7.95,5-3.2,19.74-2.88,21.02-11.18.7-4.65-1.76-20.13,7.53-14.39.48.32,8.39,7.18,8.72,7.66.71,1.12,1.41,9.42,2.44,12.3,1.28,3.59,4.32,7.31,5.29,10.83,1.28,4.68,1.31,15.38,3.81,19.32,3.01,4.71,15.41,4.49,20.57,4.65.71-.35,7.95-10.7,8.88-12.3,1.57-2.72,1.79-5.99,3.24-8.65.67-1.28,4.97-4.01,5.96-5.51,2.43-3.72,7.88-14.26,9.36-18.36,4.04-11.28,3.94-27.78,7.91-38.61,3.14-8.59,8.3-14.68,18.27-12.46,4.01.9,4.04,3.68,4.17,7.3.93,23.17-17.69,46.15-15.45,64.32.45,3.49,2.5,5.83,2.02,10.19-.35,3.24-2.37,3.5-2.92,5.19-1.03,3.4,1.6,19.23,2.92,22.88,3.04,8.59,14.71,4.52,21.25,2.28,15.57-5.26,9-9.81,10.93-22.27,1.15-7.56,2.88-14.68,4.07-23.1,1.64-11.83,10.99-21.98,12.72-31.53.93-4.87-.93-8.33-.71-11.79.16-2.63,3.2-6.57,3.72-9.32,1.47-7.72-3.46-16.57-2.79-24.9.23-2.69,4.42-18.71,5.61-20.6,1.86-2.95,6.22-6.38,7.98-9.97,7.21,6.28,18.78-2.53,24.71-.7,6.09,1.89,6.89,18.07,9.26,23.97,2.05,5.13,6.28,11.51,12.43,11.76,1.41.07,9.68-2.31,10.86-3.08,3.65-2.34,2.11-6.76,2.85-10.22,2.37-11.12,25.6-21.47,29.8-30.57,5.83-12.76,9.9-26.37,14.77-39.54,5.35-14.55,10.9-18.81,19.42-29.87,4.81-6.18,5.99-15.77,15.77-16.47,12.56-.9,5.29,6.31,4.55,11.66-.93,6.76,4.65,18.91,13.07,17.08,5.29-1.15,21.25-15.09,22.05-20.22.58-3.75-.26-7.08.74-11.34,1.38-5.99,5.06-9.78,7.56-14.55,1.35-2.53,2.92-9.36,4.84-10.35,15.48,3.62,22.46,14.96,37.75,1.6,10.16-8.87,7.11-15.22,8.97-26.24,1.09-6.38,6.6-14.42,7.15-20,.48-4.78-1.86-10.54-1.47-15.51.7-9.26,8.2-21.57,9.74-29.55,2.6-13.62,2.6-18.78,9.49-31.79,4.2-7.98,4.52-9.07,7.79-17.34,1.96-4.97,5.03-10.45,7.31-15.32,3.81-.29,8.2-.71,11.89.26,10.54,2.66,31.21,19.55,40.44,26.73,5.86,4.58,18.17,15,25.22,17.3,4.9,1.6,10.83.77,16.38,2.73,6.76,2.4,15.7,10.03,22.17,11.02,1.51.23,3.11-1.09,5.16-.29ZM336.5,577.96c-7.21.19-15.93-26.98,2.24-17.88,2.15,5.7,4.39,14.42-2.24,17.88ZM353.58,452.18c-1.22,1.47-2.5,3.04-3.24,4.84-7.08,16.66-18.46,29.1-24.39,46.02-1.06,3.01-.77,6.44-2.31,9.29-3.3,1.6-7.11,1.67-10.51,3.04-3.88,1.57-16.28,9.2-18.94,9.2-2.21-.03-5.38-3.17-7.85-4.17-6.44-2.6-10.19-.67-16.79-.84-3.27-3.24,15.12-14.87,17.01-16.66,6.7-6.41,6.25-6.41,14.29-11.86,11.6-7.88,14.23-11.95,23.49-20.8,3.11-2.98,8.3-5.25,11.25-8.36,3.01-3.2,5.54-10.83,9.93-11.69,1.57-.29,9-.67,8.04,1.99ZM480.84,305.8c-1.76,20.93,3.62,22.75-14.07,38.23-3.11,2.72-9.29,5.64-11.66,8.49-10.61,12.79-12.43,32.46-17.5,47.88-1.38,4.26-9.74,21.73-12.11,25.12-5.74,8.2-13.46,6.76-18.75,10.93-1.92,1.47-8.33,13.17-8.91,15.73-.83,3.59.19,7.27-1.64,10.45-1.06,1.92-8.24,6.67-10.29,6.44-11.02-1.09-10.06-26.28-25.8-20.93l1.19-12.4c3.88-4.97,10.64-7.95,14.42-12.72,3.56-4.45,4.39-9.93,9.49-13.65,3.56-2.56,8.04-2.95,11.63-5.48,4.04-2.82,6.34-8.52,10-12.11,8.17-7.98,16.7-13.84,23.68-23.58,7.47-10.41,10.06-25.06,16.34-35.99,2.15-3.69,7.21-7.69,8.91-11.25,1.38-2.92,1.28-5.51,3.14-8.91,3.53-6.47,12.47-13.2,16.41-19.8l2.82-.93c8.01,4.74,3.2,8.4,2.69,14.48ZM493.43,388.83c2.66,1.22,4.58,7.44,2.5,9.04-2.63,1.99-6.44-7.11-2.5-9.04ZM495.38,433.15c-5.51-2.53-2.76-9.39.16-9.93,8.62-1.67,7.53,13.49-.16,9.93ZM536.75,289.23c-.77,2.66-3.81,5.93-4.39,8.75-.74,3.52.87,8.11-2.24,10.8-7.95,6.79-11.44-7.24-13.01-13.11-1.25-4.64-4.84-15.41,1.66-17.33,6.28-1.83,20.09,3.14,17.98,10.89Z"/>
      <path class="cls-1" d="M1851.67,723.55c-1.99-1.44-4.55-1.41-6.47-2.6-6.86-4.23-9.55-10.09-18.17-2.95,1.28,4.1,7.15,11.02,6.83,14.87-.45,5.16-6.12,7.79-8.94,4.1-2.31-2.98-5.74-20.54,2.08-19.45-2.31-4.42-2.15-9.84-3.75-14.87-5.8-18.59-17.11-21.89-31.34-32.01-11.25-8.01-21.95-16.28-32.81-24.54-3.33-2.53-6.25-7.18-9.64-9.49-2.85-1.96-6.63-2.4-8.97-4.1-2.72-2.02-5.32-7.72-8.52-10.57-10.77-9.68-19.45-19.45-30.73-28.62-15.83-12.85-31.92-25.89-47.78-38.77-4.55-3.69-6.7-9.26-10.03-12.08-5.03-4.2-17.59-10.45-23.62-14.61-3.33-2.31-5.06-6.18-7.6-8.49-6.51-5.93-18.43-12.91-25.57-18.71-5.61-4.52-13.17-10.83-18.39-15.57-5.9-5.35-9.64-14.9-15.89-20.58-6.7-6.09-14.52-10.16-21.18-15.03-2.88-2.08-5.48-8.43-8.97-11.15-3.01-2.37-6.7-2.91-9.58-5.51-2.92-2.63-6.12-8.27-9.07-11.06-7.69-7.24-19.64-14.16-27.3-21.5-2.88-2.75-5.42-7.82-8.91-10.7-8.65-7.11-8.46-7.63-15.64-15.61-3.37-3.75-8.4-5.9-12.02-10.06-3.85-4.45-6.09-10.61-10.1-15.06-4.29-4.78-10.8-5.86-15.09-10.03-3.81-3.69-4.97-9.74-7.56-12.56-1.86-2.02-6.38-3.14-9-5.09-3.04-2.24-13.46-13.88-16.05-17.15-4.58-5.74-9.26-16.6-14.17-21.02-1.57-1.41-3.84-1.35-5.48-2.6-7.47-5.7-10.8-16.5-17.59-22.62-2.89-2.59-6.31-3.46-8.62-5.51-8.52-7.6-9.58-24.45-15.61-31.66-1.89-2.28-4.45-2.63-6.54-4.55-8.91-8.21-8.88-14.2-14.23-23.97-1.83-3.27-10.22-12.98-10.67-14.48-.8-2.92.13-6.6-.32-9.74-2.47-17.47-2.21-29.9-15.32-43.52-2.6-2.69-8.24-3.81-9.65-5.99-1.99-3.11-1.47-9.23-2.34-12.72-4.13-16.47-20.48-29.9-29.96-43.51-4.58-6.6-5.67-14.29-11.63-21.05-5.83-6.6-9.87-10.57-18.75-5.35-6.22,3.65-3.59,10.89-.54,16.09,2.08,3.53,6.09,5.7,8.24,8.88,5.99,8.78,9.9,30.44,3.01,39.1-3.88,4.9-9.68,12.95-14.48,16.7-5.96,4.68-14.65,8.72-21.15,2.79.45-6.86.26-14.16-7.37-16.66-3.56-1.19-11.79,3.72-13.2,7.37-2.92,7.63-4.13,21.53-6.22,30-.93,3.59-2.63,6.86-3.69,10.41-.77,2.66.83,5.09-2.05,8.52-5.99,7.15-12.43,6.28-19.77,8.88-3.3,1.19-7.47,5.29-10.54,5.38-1.35.03-10.99-.8-11.89-1.09-2.47-.7-6.95-7.47-9.87-9.26-11.44-6.99-4.04,20.44-4.26,23.94-.32,4.74-6.15,10.9-6.7,15.32-.51,4.2,2.31,7.98,2.05,13.01-.45,9.77-4.23,14.9-11.12,21.12-5.51,4.97-13.43,10-18.14,16.05-3.3,4.23-2.63,11.06-4.94,14.17-1.83,2.47-8.49,3.75-11.47,5.64-9.2,5.86-10.99,17.88-16.92,26.34-6.54,9.29-19.68,22.14-21.53,33.81-1.79,11.28,6.25,12.15,6.54,20.83,0,0,1.44,10.41,11.06,2.37v-.03c.19-6.22,4.2-6.67,6.54-11.12,1.6-2.98,1.7-8.14,3.72-11.38.35-.54,7.98-9.2,8.49-9.61,3.49-3.14,22.85-9.68,27.62-8.62,11.28,2.5,3.85,19.77,14.52,19.67,12.82-.13,16.12-12.37,29.23-3.08,10.29,7.34,5.54,19.8,17.21,21.05,5.67.61,8.04-1.8,8.43-7.6.61-9.49-4.58-26.5-6.79-36.31-.54-2.5.1-5.09-.45-7.6-1.67-7.21-11.76-26.69-6.89-33.49.9-1.28,8.08-5.41,9.74-5.48,4.01-.22,8.49,7.82,13.46,7.05.42,4.49-5.8,5.64-7.92,9.68-2.5,4.81-1.83,13.17-.45,18.3,1.35,5,5.67,7.02,6.38,12.75.29,2.15.35,8.88-.51,10.57l-7.31,4.49c1.57,10.99,9.1,10.32,16.57,14.42,5.74,3.17,12.21,14.58,16.18,4.52,5.64-14.2.87-17.02,1.12-28.94.13-5.09,3.17-10.96,3.17-16.12.03-7.72-6.09-18.04-2.56-26.63.45-1.06,2.18-2.15,3.01-4.04,4.33-10.19-1.28-19.97-3.3-28.94-.35-1.54-1.35-10.35-1.22-11.73.55-6.34,9.42-7.47,13.62-3.65,4.94,4.52,5.16,12.15,8.08,17.05,4.07,6.76,12.37,9.07,9.49,20.22-6.96-.54-15.48-.87-15.03,8.4.38,8.81,4.9,10.83,7.85,17.37,1.7,3.68,2.24,8.17,3.97,12.15,3.88,9,10.29,16.95,14.23,25.99,3.11,3.33,12.08,4.68,16.12,2.98,1.15-.48,11.99-9.65,13.07-11.06,2.37-3.11,7.27-16.28,11.44-15.42,4.55,1,14.71,23.2,17.95,28.3,6.54,10.32,23.39,30.15,27.21,40.22,1.44,3.88.9,8.68,2.59,13.49,5.13,14.55,17.79,34.41,30.12,43.61,10.64,7.92,19.45-1.02,24.9-10.09,7.88,4.77,10.03,12.75,14.61,19.36,1.76,2.59,6.06,5.7,8.01,8.3,5.22,6.95,6.57,14.19,9.93,21.47,4.62,9.93,10.32,21.79,16.06,31.02,5.48,8.84,11.82,11.53,16.7,18.52,8.27,11.76,9.23,35.86,29.19,33.07,7.88-1.12,8.04-11.76,17.5-8.81,3.01,6.99,5,14.68,4.1,22.37-.26,2.37-1.64,4.45-1.92,7.11-1.51,14.42,9.55,50.02,19.13,61.4,7.72,9.13,12.94,8.36,24.13,10.54,4.2-9.2-4.55-20.8-1.86-29.51.32-1,1.25-1.92,2.34-1.67,4.39,3.97,10.22,9.07,12.5,14.68,1.89,4.62,1.51,9.58,3.08,14.04,2.6,7.47,12.4,24.74,16.63,32.69,3.11,5.83,10.26,19.48,14.65,23.56,5.83,5.41,12.4,3.36,15.29-3.72,2.92-7.15-6.92-17.47-10.03-23.65-3.56-7.05-6.79-15.7-8.87-23.33-3.3-12.18-6.95-24.48-11.76-36.5-4.3-10.74-4.65-11.64-7.08-23.14-1.6-7.6-6.92-13.04-.13-20.96,5.25-.38,11.76,15.29,17.14,18.04,5.48,2.79,13.59,1.8,20.38,5.77,18.33,10.7,25.35,34.41,33.1,52.39,1.57,3.59,4.36,6.51,6.12,10,3.11,6.12,1.54,10.57,8.65,14.48,2.56,1.41,5.38,2.12,8.17,2.92,3.08.9,16.76,4.33,19.03,4.2,8.3-.54,14.87-11.54,15.06-19.26l1.09-.86c4.78,1.79,14.45,2.43,18.01,5.99,1.63,1.63,3.65,6.83,5.64,9.23,2.37,2.85,5.51,4.13,7.66,7.72,1.51,2.5,1.54,6.83,2.88,9.1,1.03,1.76,3.27,2.08,4.49,3.59,4.01,5.06,6.5,11.66,10.06,16.09,2.92,3.66,6.79,4.39,9.97,7.15,11.31,9.84,11.44,25.06,17.78,36.53,5.03,9.17,33.04,9.36,35.19-1.86,1.12-5.96-2.31-23.84-4.52-29.8-2.69-7.24-10.74-12.3-15-18.2-3.68-5.09-6.98-15.48-13.01-18.27-2.6-1.22-4.87.35-6.83-1.12-3.62-2.73-8.14-16.73-13.56-22.69-5.61-6.15-13.11-15.42-18.55-20.7-2.69-2.56-10.54-5.19-8.11-10.03,1.35-2.66,8.49-2.4,11.12-2.05,6.89,1,9.26,8.36,14.07,12.11,9.81,7.69,19.48,15.19,29.58,22.72,14.68,10.99,22.18,19.13,33.71,33.71,4.68,5.86,8.65,14.61,14,19.71,2.79,2.63,11.06,6.22,12.79,8.85,1.73,2.63,2.85,8.68,4.81,12.3,7.37,13.75,13.27,15.61,27.62,17.62,3.14.48,3.94,2.63,9.04,1.57,13.14-2.69,11.28-20.57,2.28-26.95ZM1097.33,302.77c-.99,1.06-7.82,3.17-9.42,3.24-6.54.29-1.76-5.96-1.44-8.56.48-3.88-1.51-12.05,3.78-13.43,5.58-1.41,10.8,14.77,7.08,18.75ZM1260.12,270.88c-1.83,5.83-4.74,1.51-7.02-.61-4.74-4.36-6.86-9.29-10.64-14.04-2.12-2.66-7.11-5.8-8.91-9.17-4.87-9.13,6.41-5.64,11.92-5.93,5.99,7.88,18.07,18.9,14.64,29.74ZM1301.81,325.17c-4.32.54-5.83-4.74-9.29-6.28-2.05-.93-4.17-.48-6.34-1.73-4.74-2.76-7.79-12.24-6.25-17.43.48-1.73,3.46-3.3,3.62-5.41.13-1.54-3.68-6.28-3.85-8.97-.16-2.44,1.83-4.13,2.02-6.44,5.77,1.57,5.86,8.46,9.04,12.6,1.7,2.24,6.92,5.16,7.85,8.23.83,2.76-.16,6.6.32,9.71.9,5.55,3.56,10.16,2.88,15.73ZM1386.09,330.46c-2.5,5.29-7.34,2.85-11.12,3.94-5.42,1.57-3.2,12.69-4.01,17.21-.32,1.89-.54,3.33-2.72,2.72-.9-3.94-5.22-5.93-7.5-9.1-2.72-3.85-4.07-8.81-7.18-12.95-3.04-4.01-7.98-7.24-10.93-11.22-4.97-6.7-7.63-17.88-14-23.71-3.11-2.85-6.95-2.73-9.77-4.81-4.29-3.17-8.78-12.02-13.11-16.09-2.47-2.31-7.11-4.39-9.61-6.98-7.34-7.56-15.61-24.13-23.94-29.84-2.34-1.6-5.7-2.21-8.3-3.81-7.44-4.68-9.52-13.62-14.87-19.32-3.27-3.49-7.44-5-11.09-9.04-2.82-3.08-10.48-12.37-12.59-15.6-2.5-3.85-1.28-9.33-2.98-11.09-1.02-.84-2.05-1.12-3.33-1.19-3.59-.1-15.32,1.99-18.87,3.17-4.17,1.41-6.99,6.57-9.29,8.3-.87.61-10.03,4.29-11.18,4.29-2.63-.1-9-3.43-10.54-5.7-.8-3.14,7.31-16.47,10.03-18.84,3.62-3.14,10.29-4.94,14.48-8.65,4.13-3.65,6.12-8.68,10.54-12.56,3.37-2.98,8.78-5.67,12.18-9.07,3.17-.99,8.88,1.7,12.47,1.6,3.3-.13,5.96-2.21,10.09-2.15,2.05.03,14.87,2.37,16.02,3.17,1.79,1.19,3.62,8.3,3.65,10.54.13,7.5-7.05,11.69,1.47,18.55,5.48,4.42,9.55,9.13,14.23,12.91,3.91,3.2,7.59,2.57,12.02,4.1.61,5.09-1.99,8.52.32,13.75.93,2.08,17.08,25.12,18.65,26.63,3.56,3.36,6.31,1.95,9.55,3.52,6.38,3.08,11.76,25.19,15.73,31.53,1.95,3.11,6.5,5.74,8.46,8.65,4.55,6.76,6.22,14.29,14.58,19.64,2.72,1.73,5.54,1.44,8.08,2.98,3.72,2.18,10.35,14.55,14.64,13.65,1.76-.38,5.29-3.81,7.75-1.35,2.12,2.12,3.72,18.49,1.99,22.18ZM1458.8,431.33c-.83.35-10.96,12.08-11.63,13.49-4.2,8.56,5.13,18.97,4.58,24.68-.38,4.2-7.02,3.72-9.58,6.34-2.28-.06-12.34-17.98-13.11-20.86-1.44-5.61.61-9.39.45-14.45-.22-7.24-4.13-13.17-9.45-17.78-4.97-4.26-13.72-9.87-18.17-14.04-.9-.87-5.13-7.79-5.35-8.81-1.06-5.64,8.52-10.87,9-16.89.67-8.43-5.06-13.52-6.06-19.16-.38-2.21-.38-16.41.42-17.59.8-1.15,1.57-1.19,2.88-.83,1.54.45,9.84,10.29,11.73,12.43,1.12,1.25,1.38,3.01,2.4,4.17,3.94,4.42,9.71,10.96,13.71,14.96,4.55,4.52,11.31,7.44,15.06,12.08,3.49,4.26,6.09,10.51,10.09,15.06,5.48,6.22,13.49,10.19,15.03,19.23,1.44,8.56-7.88,6.19-12.02,7.98Z"/>
      <path class="cls-1" d="M889.53,298.76c8.43-15.86-1.59-26.5.1-40.18.34-2.77,11.36-14.1,7.67-20.66-1.05-1.64-15.29-2.35-18.78-3.7-9.42-3.65-18.88-13.37-31.55-14.95-5.43-.68-16.78,2.72-20.4,6.45-4.07,4.19-4.28,22.93-5.4,29.48-.51,3-3.29,6.35-3.92,10.03-1.33,7.73.62,15-1.66,23.14-1.88,6.72-8.81,14.38-10.38,20.62-1.97,7.8,1.4,15.21-5.38,21.73,17.92.18,33.4-10.13,51.08-14.78,14.77-3.88,29.94-.86,38.62-17.19Z"/>
      <path class="cls-1" d="M1184.13,621.48c-.48-4.36-6.25-13.4-6.76-20.25-.58-7.4,4.23-8.14,4.87-12.27.1-.67-.67-10.64-.9-11.79-1.12-6.51-8.17-13.3-13.72-16.47-3.88-2.21-17.95-7.31-22.17-8.01-4.68-.77-10.09,1.12-13.88-2.21-2.08-1.86-2.63-5.38-4.49-7.6-2.21-2.69-5.45-3.68-7.88-7.18-4.1-5.9-7.11-17.66-11.7-22.53-2.92-3.11-7.53-3.65-10.67-6.44-8.24-7.34-20-23.01-27.59-31.76-3.27-3.81-7.72-5.29-10.58-8.52-4.81-5.48-8.01-12.95-13.59-18.59-12.69-12.88-27.85-26.02-41.24-38.26-7.69-7.02-11.76-9.71-19.55-15.67-2.37-1.79-5.61-4.45-8.39-7.4l-2.34-1.35-.06-.03c-4.26-2.69-11.02-6.51-15.03-8.68-.96-.54-1.79-.96-2.4-1.28l-.35-.19-.06-.03-.26-.13-.03-.03-.16-.1c-2.98-1.51-6.89-5.35-8.24-5.83-2.85-.99-5.54-.03-8.4-1.63-2.08-1.19-2.56-3.59-4.13-4.94-9.68-8.3-10.61-.03-18.87-1.19-13.78-1.96-21.12-14.71-34.48-15.89-6.95-.64-20.41-1.38-26.89.22-16.76,4.13-15.06,13.2-24.99,21.31-5.99,4.87-14.84,6.54-20.54,10.64-4.29,3.08-4.29,9.36-11.15,10.06-.38.03-.7.06-1.02.06h-.32c-4.84.13-9.93,3.88-10.57,4.33l-.06.06c-2.53,3.3-8.81,10.67-10,11.7-3.11,2.6-9.33,4.13-11.31,6.28-2.28,2.47-5.51,11.86-7.95,15.7-5.51,8.72-18.55,19.39-21.09,29.22-1.83,7.21.7,14.07.64,20.67-.06,3.94-2.18,8.17-2.18,12.08.03,5.35,4.04,10.8,2.92,15.86-.96,4.23-8.11,9.13-9.42,13.78-9.16,3.24-16.41,6.28-20.09,16.12-4.29,11.54-7.53,28.55-7.43,40.63.06,5.86,3.11,14.93,2.85,21.18-.1,2.72-2.47,6.15-2.85,9.2-1.44,10.48.83,23.1-1.35,33.9-.77,3.68-2.85,7.5-3.72,11.38-.45,2.15.29,4.71-.1,6.92-1.47,8.08-16.95,8.43-22.98,15.25-6.25,7.11-.38,20.54,6.98,24.96,7.5,2.05,12.08,11.06,20.06,10.22,2.15-.22,9.81-2.72,11.09-4.32,7.24-9.1-6.19-19-4.94-23.75,5.7-4.29,8.59-10.61,13.91-15.32,3.24-2.82,14.48-9,15.16-13.11.54-3.46-1.57-6.79-1.92-10.09-1.79-15.83,1.28-30.19,4.68-45.41,3.14-14,4.61-14.32,2.31-29-1.35-8.62.77-6.12,4.49-10.48,12.69-14.84,20.89-42.4,28.9-60.66,8.88-20.28,11.15-36.18,17.59-56.85.96-3.08.96-8.62,2.37-10.7,3.33-5.03,9.55,3.36,12.72,4.2,3.81.96,8.4-.74,12.21,1.38,1.12,10.7-4.68,15.61-14,18.62-1.44,8.33,3.72,14.93,5.8,22.27,1.73,6.12,2.05,14.77,4.1,20.03,5.16,13.11,17.85,13.43,23.1,26.21,5.06,12.21,4.01,21.57,5.54,33.71,2.34,18.62,15.29,42.27,16.63,59.89.29,3.81-1.38,6.89-.54,11.57,3.08,17.69,13.52,40.47,19.13,58.29,4.45,14.1,7.53,30.06,12.34,44.03,4.81,14.1,18.43,34.8,25.51,48.9,10.22,20.35,16.28,47.55,25.57,69.03,2.18,4.97,12.82,25.64,16.79,27.46,3.75,1.7,15.54.03,13.94-5.8-7.18-11.92-15.93-23.36-20.99-36.43-4.07-10.48-2.76-11.06-2.98-21.09-.22-9.84-13.07-42.07-18.71-50.79-4.94-7.6-9.9-8.2-13.01-19.19-2.24-7.92-.51-13.4-1.57-20.54-1.35-9.36-8.04-22.85-10.16-32.11-2.15-9.58-.7-15.25,4.01-23.46,2.02-3.49,11.09-13.2,10.8-15.54-3.14-3.85-8.17-4.97-11.63-9.45-5.22-6.83-11.15-26.76-12.82-35.44-.32-1.6-.93-6.5.35-7.4,12.24-2.43,16.95,6.51,24.32,13.14,8.56,7.66,14.93,6.38,13.3,21.66-1.7,16.02-6.06,28.04.55,43.74,4.58,10.9,24.29,38.26,33.17,46.3,2.4,2.18,5.26,2.79,8.08,5.99,3.56,4.1,6.19,11.47,10.48,14.68,2.53,1.86,5.8,2.15,7.79,3.78,13.68,11.25,13.71,34.45,18.94,49.99,1.28,3.88,4.55,7.56,5.29,11.82,1.22,7.24-1.28,14.71.48,22.66.99,4.45,8.75,24.99,11.38,27.85,3.85,4.2,12.02,1.28,16.7-.29,17.53-5.93,7.53-10.9,11.02-22.21,1.15-3.72,3.97-6.38,3.81-11.05-.19-7.44-8.85-20.06-11.73-27.49-3.3-8.49-4.61-17.69-8.08-26.12-5.29-12.76-11.34-19.77-15.54-33.78-3.94-13.11-8.43-21.6-13.52-33.78-4.17-9.9-5.8-21.53-13.4-29.87-2.69-2.98-7.69-3.72-9.97-7.21-.45-1.76,4.55-7.56,5.83-10,8.72-16.79,4.45-19.1,2.21-36.18-4.1-31.28-6.25-58.35-15.89-88.73-5.99-18.91-16.09-34.87-22.37-54.09-1.67-5.09-2.21-11.5-3.84-16.28-5.67-16.5-33.58-36.4-35.35-52.2-2.4-21.57,14.52-6.73,20.99,1.15,3.88,4.71,7.85,13.75,11.66,17.5,2.56,2.5,8.59,4.23,10.54,7.56,4.2,7.15,6.18,13.01,4.7,20.31,8.52-1.31,6.99,7.6,13.02,11.28,6.47,3.94,15.25,7.82,21.41,11.79,7.08,4.55,15,13.17,22.88,17.37,13.62,7.24,8.56,5.35,17.5,16.47,5.32,6.67,20.64,16.54,27.75,24.29,3.65,3.97,8.94,13.68,12.82,16.31,2.18,1.51,5.83,2.02,7.69,3.91,4.74,4.81,8.4,17.02,13.52,20.7,3.04,2.15,6.89,1.99,9.52,4.58,1.7,1.7,2.92,6.15,5.13,7.02,1.67.64,3.36-.9,5.26-.42,1.67.42,4.13,4.04,6.5,4.65,2.69.71,6.6-.67,8.43,1.67,1.19,1.51,1.64,6.06-.03,7.21-.45.29-9.49,1.51-10.54,1.41-5.96-.51-7.6-12.02-14.04-9.97-2.44.77-1.96,10.03-1.57,12.43,1.31,8.65,17.66,40.28,23.07,48.32,3.94,5.83,9.93,8.52,11.22,16.47l7.98-.45c2.15-2.92-3.2-19.26,2.66-23.52,4.17-.45,7.53-1.57,11.57.26,5.42,2.47,11.47,17.11,17.18,15.73,8.11-1.95-3.14-23.75-3.24-28.68-.06-3.43,3.01-8.3,2.63-11.86Z"/>
    </g>
  </g>
</svg>
