<?xml version="1.0" encoding="UTF-8"?>
<svg id="Calque_2" data-name="Calque 2" xmlns="http://www.w3.org/2000/svg" viewBox="0 0 474.08 12.27">
  <defs>
    <style>
      .cls-1 {
        fill: #3f3f3f;
      }
    </style>
  </defs>
  <g id="Calque_1-2" data-name="Calque 1">
    <g>
      <polygon class="cls-1" points="9.35 7.64 10.68 11.72 9.92 12.27 6.45 9.75 2.98 12.27 2.22 11.72 3.55 7.64 0 5.06 .27 4.23 4.66 4.23 6.03 0 6.87 0 8.25 4.23 12.63 4.23 12.9 5.06 9.35 7.64"/>
      <polygon class="cls-1" points="38.18 7.64 39.5 11.72 38.75 12.27 35.27 9.75 31.8 12.27 31.05 11.72 32.37 7.64 28.82 5.06 29.09 4.23 33.48 4.23 34.85 0 35.7 0 37.07 4.23 41.46 4.23 41.73 5.06 38.18 7.64"/>
      <polygon class="cls-1" points="67 7.64 68.33 11.72 67.57 12.27 64.1 9.75 60.63 12.27 59.87 11.72 61.2 7.64 57.65 5.06 57.92 4.23 62.3 4.23 63.68 0 64.52 0 65.89 4.23 70.28 4.23 70.55 5.06 67 7.64"/>
      <polygon class="cls-1" points="95.82 7.64 97.15 11.72 96.39 12.27 92.92 9.75 89.45 12.27 88.69 11.72 90.02 7.64 86.47 5.06 86.74 4.23 91.13 4.23 92.5 0 93.34 0 94.72 4.23 99.1 4.23 99.37 5.06 95.82 7.64"/>
      <polygon class="cls-1" points="124.65 7.64 125.97 11.72 125.22 12.27 121.74 9.75 118.27 12.27 117.52 11.72 118.84 7.64 115.29 5.06 115.56 4.23 119.95 4.23 121.32 0 122.17 0 123.54 4.23 127.93 4.23 128.2 5.06 124.65 7.64"/>
      <polygon class="cls-1" points="153.47 7.64 154.8 11.72 154.04 12.27 150.57 9.75 147.1 12.27 146.34 11.72 147.67 7.64 144.12 5.06 144.39 4.23 148.77 4.23 150.15 0 150.99 0 152.36 4.23 156.75 4.23 157.02 5.06 153.47 7.64"/>
      <polygon class="cls-1" points="182.29 7.64 183.62 11.72 182.86 12.27 179.39 9.75 175.92 12.27 175.16 11.72 176.49 7.64 172.94 5.06 173.21 4.23 177.6 4.23 178.97 0 179.81 0 181.19 4.23 185.57 4.23 185.84 5.06 182.29 7.64"/>
      <polygon class="cls-1" points="211.12 7.64 212.44 11.72 211.69 12.27 208.21 9.75 204.74 12.27 203.99 11.72 205.31 7.64 201.76 5.06 202.03 4.23 206.42 4.23 207.79 0 208.64 0 210.01 4.23 214.4 4.23 214.67 5.06 211.12 7.64"/>
      <polygon class="cls-1" points="239.94 7.64 241.27 11.72 240.51 12.27 237.04 9.75 233.57 12.27 232.81 11.72 234.13 7.64 230.59 5.06 230.86 4.23 235.24 4.23 236.62 0 237.46 0 238.83 4.23 243.22 4.23 243.49 5.06 239.94 7.64"/>
      <polygon class="cls-1" points="268.76 7.64 270.09 11.72 269.33 12.27 265.86 9.75 262.39 12.27 261.63 11.72 262.96 7.64 259.41 5.06 259.68 4.23 264.07 4.23 265.44 0 266.28 0 267.66 4.23 272.04 4.23 272.31 5.06 268.76 7.64"/>
      <polygon class="cls-1" points="297.59 7.64 298.91 11.72 298.16 12.27 294.68 9.75 291.21 12.27 290.46 11.72 291.78 7.64 288.23 5.06 288.5 4.23 292.89 4.23 294.26 0 295.11 0 296.48 4.23 300.87 4.23 301.14 5.06 297.59 7.64"/>
      <polygon class="cls-1" points="326.41 7.64 327.74 11.72 326.98 12.27 323.51 9.75 320.04 12.27 319.28 11.72 320.6 7.64 317.06 5.06 317.33 4.23 321.71 4.23 323.09 0 323.93 0 325.3 4.23 329.69 4.23 329.96 5.06 326.41 7.64"/>
      <polygon class="cls-1" points="355.23 7.64 356.56 11.72 355.8 12.27 352.33 9.75 348.86 12.27 348.1 11.72 349.43 7.64 345.88 5.06 346.15 4.23 350.54 4.23 351.91 0 352.75 0 354.13 4.23 358.51 4.23 358.78 5.06 355.23 7.64"/>
      <polygon class="cls-1" points="384.06 7.64 385.38 11.72 384.63 12.27 381.15 9.75 377.68 12.27 376.93 11.72 378.25 7.64 374.7 5.06 374.97 4.23 379.36 4.23 380.73 0 381.58 0 382.95 4.23 387.34 4.23 387.61 5.06 384.06 7.64"/>
      <polygon class="cls-1" points="412.88 7.64 414.21 11.72 413.45 12.27 409.98 9.75 406.51 12.27 405.75 11.72 407.07 7.64 403.53 5.06 403.8 4.23 408.18 4.23 409.56 0 410.4 0 411.77 4.23 416.16 4.23 416.43 5.06 412.88 7.64"/>
      <polygon class="cls-1" points="441.7 7.64 443.03 11.72 442.27 12.27 438.8 9.75 435.33 12.27 434.57 11.72 435.9 7.64 432.35 5.06 432.62 4.23 437.01 4.23 438.38 0 439.22 0 440.59 4.23 444.98 4.23 445.25 5.06 441.7 7.64"/>
      <polygon class="cls-1" points="470.53 7.64 471.85 11.72 471.1 12.27 467.62 9.75 464.15 12.27 463.39 11.72 464.72 7.64 461.17 5.06 461.44 4.23 465.83 4.23 467.2 0 468.04 0 469.42 4.23 473.8 4.23 474.08 5.06 470.53 7.64"/>
    </g>
  </g>
</svg>