<?xml version="1.0" encoding="UTF-8"?>
<svg id="Calque_2" data-name="Calque 2" xmlns="http://www.w3.org/2000/svg" viewBox="0 0 1769.8 12.24">
  <defs>
    <style>
      .cls-1 {
        fill: #3f3f3f;
      }
    </style>
  </defs>
  <g id="Calque_1-2" data-name="Calque 1">
    <g>
      <polygon class="cls-1" points="9.33 7.62 10.66 11.69 9.9 12.24 6.44 9.73 2.97 12.24 2.22 11.69 3.54 7.62 0 5.05 .27 4.22 4.65 4.22 6.02 0 6.86 0 8.23 4.22 12.6 4.22 12.87 5.05 9.33 7.62"/>
      <polygon class="cls-1" points="93 7.62 94.32 11.69 93.56 12.24 90.1 9.73 86.64 12.24 85.88 11.69 87.2 7.62 83.66 5.05 83.93 4.22 88.31 4.22 89.68 0 90.52 0 91.89 4.22 96.27 4.22 96.54 5.05 93 7.62"/>
      <polygon class="cls-1" points="176.66 7.62 177.98 11.69 177.23 12.24 173.76 9.73 170.3 12.24 169.54 11.69 170.87 7.62 167.33 5.05 167.6 4.22 171.97 4.22 173.34 0 174.18 0 175.55 4.22 179.93 4.22 180.2 5.05 176.66 7.62"/>
      <polygon class="cls-1" points="260.32 7.62 261.65 11.69 260.89 12.24 257.43 9.73 253.96 12.24 253.21 11.69 254.53 7.62 250.99 5.05 251.26 4.22 255.64 4.22 257.01 0 257.85 0 259.22 4.22 263.59 4.22 263.86 5.05 260.32 7.62"/>
      <polygon class="cls-1" points="343.99 7.62 345.31 11.69 344.55 12.24 341.09 9.73 337.62 12.24 336.87 11.69 338.19 7.62 334.65 5.05 334.92 4.22 339.3 4.22 340.67 0 341.51 0 342.88 4.22 347.26 4.22 347.53 5.05 343.99 7.62"/>
      <polygon class="cls-1" points="427.65 7.62 428.97 11.69 428.22 12.24 424.75 9.73 421.29 12.24 420.53 11.69 421.86 7.62 418.31 5.05 418.59 4.22 422.96 4.22 424.33 0 425.17 0 426.54 4.22 430.92 4.22 431.19 5.05 427.65 7.62"/>
      <polygon class="cls-1" points="511.31 7.62 512.63 11.69 511.88 12.24 508.41 9.73 504.95 12.24 504.2 11.69 505.52 7.62 501.98 5.05 502.25 4.22 506.62 4.22 507.99 0 508.83 0 510.2 4.22 514.58 4.22 514.85 5.05 511.31 7.62"/>
      <polygon class="cls-1" points="594.97 7.62 596.3 11.69 595.54 12.24 592.08 9.73 588.61 12.24 587.86 11.69 589.18 7.62 585.64 5.05 585.91 4.22 590.29 4.22 591.66 0 592.5 0 593.87 4.22 598.24 4.22 598.51 5.05 594.97 7.62"/>
      <polygon class="cls-1" points="678.64 7.62 679.96 11.69 679.21 12.24 675.74 9.73 672.28 12.24 671.52 11.69 672.84 7.62 669.3 5.05 669.57 4.22 673.95 4.22 675.32 0 676.16 0 677.53 4.22 681.91 4.22 682.18 5.05 678.64 7.62"/>
      <polygon class="cls-1" points="762.3 7.62 763.62 11.69 762.87 12.24 759.4 9.73 755.94 12.24 755.18 11.69 756.51 7.62 752.97 5.05 753.24 4.22 757.61 4.22 758.98 0 759.82 0 761.19 4.22 765.57 4.22 765.84 5.05 762.3 7.62"/>
      <polygon class="cls-1" points="845.96 7.62 847.29 11.69 846.53 12.24 843.07 9.73 839.6 12.24 838.85 11.69 840.17 7.62 836.63 5.05 836.9 4.22 841.28 4.22 842.65 0 843.49 0 844.86 4.22 849.23 4.22 849.5 5.05 845.96 7.62"/>
      <polygon class="cls-1" points="929.63 7.62 930.95 11.69 930.19 12.24 926.73 9.73 923.27 12.24 922.51 11.69 923.83 7.62 920.29 5.05 920.56 4.22 924.94 4.22 926.31 0 927.15 0 928.52 4.22 932.9 4.22 933.17 5.05 929.63 7.62"/>
      <polygon class="cls-1" points="1013.29 7.62 1014.61 11.69 1013.86 12.24 1010.39 9.73 1006.93 12.24 1006.17 11.69 1007.5 7.62 1003.96 5.05 1004.23 4.22 1008.6 4.22 1009.97 0 1010.81 0 1012.18 4.22 1016.56 4.22 1016.83 5.05 1013.29 7.62"/>
      <polygon class="cls-1" points="1096.95 7.62 1098.28 11.69 1097.52 12.24 1094.06 9.73 1090.59 12.24 1089.84 11.69 1091.16 7.62 1087.62 5.05 1087.89 4.22 1092.27 4.22 1093.64 0 1094.48 0 1095.85 4.22 1100.22 4.22 1100.49 5.05 1096.95 7.62"/>
      <polygon class="cls-1" points="1180.61 7.62 1181.94 11.69 1181.18 12.24 1177.72 9.73 1174.25 12.24 1173.5 11.69 1174.82 7.62 1171.28 5.05 1171.55 4.22 1175.93 4.22 1177.3 0 1178.14 0 1179.51 4.22 1183.89 4.22 1184.16 5.05 1180.61 7.62"/>
      <polygon class="cls-1" points="1264.28 7.62 1265.6 11.69 1264.85 12.24 1261.38 9.73 1257.92 12.24 1257.16 11.69 1258.49 7.62 1254.94 5.05 1255.22 4.22 1259.59 4.22 1260.96 0 1261.8 0 1263.17 4.22 1267.55 4.22 1267.82 5.05 1264.28 7.62"/>
      <polygon class="cls-1" points="1347.94 7.62 1349.26 11.69 1348.51 12.24 1345.04 9.73 1341.58 12.24 1340.83 11.69 1342.15 7.62 1338.61 5.05 1338.88 4.22 1343.25 4.22 1344.62 0 1345.46 0 1346.83 4.22 1351.21 4.22 1351.48 5.05 1347.94 7.62"/>
      <polygon class="cls-1" points="1431.6 7.62 1432.93 11.69 1432.17 12.24 1428.71 9.73 1425.24 12.24 1424.49 11.69 1425.81 7.62 1422.27 5.05 1422.54 4.22 1426.92 4.22 1428.29 0 1429.13 0 1430.5 4.22 1434.87 4.22 1435.14 5.05 1431.6 7.62"/>
      <polygon class="cls-1" points="1515.27 7.62 1516.59 11.69 1515.84 12.24 1512.37 9.73 1508.91 12.24 1508.15 11.69 1509.47 7.62 1505.93 5.05 1506.2 4.22 1510.58 4.22 1511.95 0 1512.79 0 1514.16 4.22 1518.54 4.22 1518.81 5.05 1515.27 7.62"/>
      <polygon class="cls-1" points="1598.93 7.62 1600.25 11.69 1599.5 12.24 1596.03 9.73 1592.57 12.24 1591.81 11.69 1593.14 7.62 1589.6 5.05 1589.87 4.22 1594.24 4.22 1595.61 0 1596.45 0 1597.82 4.22 1602.2 4.22 1602.47 5.05 1598.93 7.62"/>
      <polygon class="cls-1" points="1682.59 7.62 1683.92 11.69 1683.16 12.24 1679.7 9.73 1676.23 12.24 1675.48 11.69 1676.8 7.62 1673.26 5.05 1673.53 4.22 1677.91 4.22 1679.28 0 1680.12 0 1681.49 4.22 1685.86 4.22 1686.13 5.05 1682.59 7.62"/>
      <polygon class="cls-1" points="1766.26 7.62 1767.58 11.69 1766.82 12.24 1763.36 9.73 1759.9 12.24 1759.14 11.69 1760.46 7.62 1756.92 5.05 1757.19 4.22 1761.57 4.22 1762.94 0 1763.78 0 1765.15 4.22 1769.53 4.22 1769.8 5.05 1766.26 7.62"/>
    </g>
  </g>
</svg>